<?xml version="1.0" standalone="no"?>
<!DOCTYPE svg PUBLIC "-//W3C//DTD SVG 1.1//EN" "http://www.w3.org/Graphics/SVG/1.1/DTD/svg11.dtd" >
<svg>
<metadata>
Created by FontForge 20110222 at Thu Jul 21 11:29:38 2011
 By www-data
 - Created with CR8type 2.0
</metadata>
<defs>
<font id="MyAwesomatedHandwriting-Medium" horiz-adv-x="472" >
  <font-face 
    font-family="My Awesomated Handwriting"
    font-weight="500"
    font-stretch="normal"
    units-per-em="1000"
    panose-1="3 0 6 3 0 0 0 0 0 0"
    ascent="800"
    descent="-200"
    x-height="428"
    cap-height="640"
    bbox="-11.9153 -249 833.118 852"
    underline-thickness="50"
    underline-position="-100"
    unicode-range="U+0020-2022"
  />
    <missing-glyph />
    <glyph glyph-name="space" unicode=" " horiz-adv-x="420" 
 />
    <glyph glyph-name="exclam" unicode="!" horiz-adv-x="174" 
d="M54 -25q15 24 28 22.5t43 -32.5q32 -31 32.5 -54.5t-30.5 -55.5q-19 -20 -28 -24t-22 2q-36 20 -43 61t20 81zM78 535q9 11 17 10t34 -16q24 -15 34 -44t3 -64q-13 -63 -23.5 -135t-10.5 -102q-1 -76 -40 -100q-9 -6 -18 -2t-27 22q-22 22 -26 35.5t-2 61.5q2 93 21 201
t38 133z" />
    <glyph glyph-name="numbersign" unicode="#" horiz-adv-x="587" 
d="M198 609q7 12 41 3t55 -29q20 -19 25 -45t-1 -46t-9.5 -38.5t0.5 -22.5q9 -7 17.5 -4t16 17.5t13.5 37.5q15 60 38 107q10 20 31.5 16t46.5 -32q21 -22 26 -34t1 -33q-9 -54 -7 -70.5t18 -18.5q17 -3 37.5 -26t20.5 -40q0 -15 -19 -36q-14 -14 -31.5 -17.5t-31 0t-23.5 0
t-12 -17.5q-2 -13 5.5 -17.5t38.5 -8.5q35 -5 58.5 -24t23.5 -43q0 -20 -23 -38.5t-49 -19.5q-55 -1 -67.5 -12.5t-18.5 -63.5q-3 -36 -9 -54t-19 -31q-14 -14 -22 -16t-28 5q-26 9 -41.5 39t-15.5 72q0 35 -12 33q-11 -3 -16 -40q-5 -38 -14.5 -48.5t-35.5 -10.5
q-18 0 -29 5.5t-21 20.5q-19 27 -19 41q0 11 -34 40.5t-46.5 29.5t-30.5 26.5t-16 41.5q2 13 13.5 17t53.5 7l64 5l3 33q2 23 -4 31.5t-37 24.5q-38 20 -59.5 53t-7.5 50q11 13 68 8l58 -6l11 45q4 17 9.5 34.5t8.5 26.5t6 20.5t2.5 16t-2.5 12.5q-5 15 1 24zM342 260
q-2 17 -21.5 31.5t-28 9.5t-11.5 -21q-5 -22 0 -58.5t21 -30.5q14 6 40 69z" />
    <glyph glyph-name="dollar" unicode="$" horiz-adv-x="467" 
d="M267 655q-3 21 17 42t38 19q21 -3 41.5 -34.5t14.5 -52.5q-3 -14 3 -21t34 -19q25 -10 33.5 -18t8.5 -21q0 -24 -14 -33.5t-31.5 -7.5t-32.5 1t-18 -6l-27 -103q-3 -11 4.5 -21.5t31.5 -27.5q17 -12 29 -23.5t12 -16.5q0 -11 21 -33q13 -14 16.5 -29t3.5 -49
q-2 -111 -80 -187q-25 -25 -40.5 -32.5t-43.5 -9.5l-45 -2l-14 -55q-7 -24 -14.5 -39.5t-11.5 -14.5q-12 0 -34 2q-25 1 -42 32t-12 66q3 27 -1.5 34.5t-32.5 20.5q-34 16 -56.5 50.5t-10.5 52.5q10 17 36 18t48 -15q27 -19 36 -19q8 0 23.5 65.5t21.5 124.5q4 40 1 53
t-21 34q-45 53 -49 95.5t32 87.5q19 26 33.5 35.5t37.5 13.5q36 6 47 15t7 28zM339 251q-29 23 -38 12.5t-15 -73.5q-6 -65 7 -59q7 3 17 22q12 23 19 23t19 29q8 20 6.5 27t-15.5 19zM183 565q6 0 11.5 -15.5t5.5 -38.5q0 -24 -5.5 -40.5t-11.5 -16.5q-7 0 -12.5 16.5
t-5.5 40.5q0 23 5.5 38.5t12.5 15.5z" />
    <glyph glyph-name="percent" unicode="%" horiz-adv-x="843" 
d="M497 217q6 23 26.5 51.5t54.5 53.5t76.5 30.5t92.5 -17.5q26 -13 52.5 -43.5t31.5 -52.5q6 -26 -5 -76t-29 -78q-21 -31 -32 -49q-11 -19 -50 -35.5t-57 -10.5q-20 6 -35 4q-21 -3 -57.5 19.5t-55.5 49.5q-38 56 -13 154zM726 227q-11 13 -32 13t-56.5 -31t-47.5 -59
q-9 -22 -8.5 -29t11.5 -16q26 -18 59 -9.5t53 39.5q43 65 21 92zM505 526q0 2 25 37.5t58 72t50 36.5q21 0 32.5 -15t15.5 -47q3 -28 -17 -64.5t-87 -122.5l-163 -211q-36 -47 -113.5 -135.5t-89.5 -105.5q-22 -35 -54.5 -22t-38.5 58q-3 27 3 39t39 45q35 34 56 60t62 85
q21 30 96.5 127t102.5 129q23 26 23 34zM114 653q38 29 79 29.5t67 -27.5q52 -55 64.5 -135t-20.5 -145q-23 -43 -49.5 -65t-70.5 -33q-33 -8 -44.5 -6t-35.5 18q-32 20 -63 77t-31 94q0 55 27 106t77 87zM232 526q-4 26 -9.5 33.5t-19.5 8.5q-27 2 -39 -7.5t-30 -45.5
q-40 -77 -7 -118q18 -23 42.5 -10.5t46.5 54.5q14 28 17 44.5t-1 40.5z" />
    <glyph glyph-name="ampersand" unicode="&#x26;" horiz-adv-x="697" 
d="M280 635q20 8 81 8t90 -8q33 -9 68 -40q24 -21 29.5 -33t5.5 -48q0 -40 -13.5 -68t-51.5 -70l-22 -24l22 -14q23 -15 33 -38q7 -15 5 -26t-16 -33q-21 -32 -37.5 -84.5t-11.5 -66.5q4 -9 21 -12t68 -3q58 0 74.5 -3.5t36.5 -21.5q29 -26 24 -45.5t-40 -26.5
q-33 -6 -122 -1t-113 15q-15 5 -30 3t-45 -13q-36 -14 -49 -14t-49 11q-60 20 -126.5 70.5t-88.5 91.5q-15 29 -12.5 56.5t22.5 45.5l58 53q35 33 67 44l33 11l5 86q10 168 84 198zM430 523q-3 16 -23 18t-43 -9t-34 -29q-14 -23 -17 -59t8 -43q9 -6 60 51.5t49 70.5z
M404 292q0 3 -16 3q-18 0 -37.5 -15t-19.5 -29q0 -11 11.5 -29t18.5 -18q4 0 23.5 40.5t19.5 47.5zM290 87q5 13 -26 76.5t-45 65.5q-5 1 -21.5 -8.5t-32.5 -24.5l-40 -36l27 -30q21 -22 42.5 -35.5t37.5 -17t29.5 -2.5t20.5 5t8 7z" />
    <glyph glyph-name="quotesingle" unicode="'" horiz-adv-x="152" 
d="M51 636q11 18 43.5 1t43.5 -46q9 -23 -1 -101t-26 -112q-10 -21 -18.5 -26.5t-27.5 -4.5q-30 2 -40 11q-10 10 -14 56.5t5 57.5q7 9 19.5 84t15.5 80z" />
    <glyph glyph-name="parenleft" unicode="(" horiz-adv-x="372" 
d="M232 606q48 50 63.5 61t28.5 5q33 -18 37.5 -60.5t-24.5 -69.5q-28 -27 -83 -101t-69 -106q-22 -50 -38.5 -123t-17.5 -123q0 -93 49 -213q5 -12 2 -19.5t-18 -19.5q-24 -19 -35 -19q-31 0 -61.5 60.5t-46 147t-6.5 157.5q7 52 26 118t30 73q8 5 8 20q0 18 49 85.5
t106 126.5z" />
    <glyph glyph-name="parenright" unicode=")" horiz-adv-x="329" 
d="M144 606q11 20 29 20q13 0 42.5 -27.5t29.5 -39.5q0 -8 23 -37q34 -46 46.5 -132.5t-8.5 -133.5q-12 -27 -24.5 -75t-18.5 -55q-5 -7 -7.5 -15t-10 -30.5t-23.5 -55.5q-9 -20 -17 -38t-11.5 -26t-12.5 -24.5t-25 -44.5q-23 -38 -35.5 -50.5t-33.5 -17.5t-31 -3.5
t-22 11.5q-15 14 -12.5 24.5t-5.5 21.5q-19 23 27 92q26 39 59 106t33 81q0 15 9 25q16 17 33 86.5t17 118.5q1 46 -3 63.5t-21 42.5q-48 71 -26 113z" />
    <glyph glyph-name="asterisk" unicode="*" horiz-adv-x="582" 
d="M313 568q24 17 47 41.5t36.5 34t29.5 4.5q28 -7 37 -20t9 -45q0 -27 -7.5 -42t-34.5 -44q-43 -46 -38.5 -50.5t46.5 8.5q40 12 64.5 7t47.5 -29q25 -26 22 -52q-2 -18 -13 -24.5t-62 -19t-63.5 -19.5t-22 -29.5t-16.5 -26.5t-31 0q-22 3 -39.5 16t-27.5 24.5t-16 11.5
q-8 0 -35.5 -31t-47.5 -64q-26 -41 -60 -40.5t-56 43.5q-15 30 -11.5 48t30.5 48q32 37 32 43q0 3 -17 6.5t-37.5 7.5t-41 23t-26.5 51q-4 24 17 28q25 4 139 -13q37 -5 37.5 6.5t-35.5 65.5q-64 98 -3 99q25 0 46 -12t46 -40l29 -33z" />
    <glyph glyph-name="plus" unicode="+" horiz-adv-x="517" 
d="M177 491q9 22 18 22.5t39 -19.5q22 -14 26.5 -25.5t4.5 -49.5v-55h87q78 0 114 -15t40 -48q3 -9 1 -16t-3 -12t-8.5 -8.5t-15 -5.5t-23.5 -3t-33 -1.5t-44 -0.5q-110 0 -119.5 -9.5t-10.5 -117.5q0 -76 -3 -93t-17 -23q-20 -7 -38 3q-31 16 -39 37.5t-12 95.5l-4 96
l-44 15q-77 25 -82 74q-2 17 6.5 20t59.5 3h69l11 56q11 55 20 80z" />
    <glyph glyph-name="comma" unicode="," horiz-adv-x="203" 
d="M175 -26q0 -21 -9 -31.5t-9 -23.5q0 -16 -20.5 -31t-42.5 -15q-18 0 -51 30t-33 47q0 8 8 15t18.5 18.5t14.5 30t11.5 31.5t10 25.5t-0.5 41.5q-4 46 1 51q4 6 20.5 2.5t34.5 -9.5t32.5 -20t14.5 -29q0 -16 9 -27t9 -37q0 -25 -9 -36.5t-9 -32.5z" />
    <glyph glyph-name="hyphen" unicode="-" horiz-adv-x="306" 
d="M17 250q5 7 74.5 8.5t103.5 -5.5q12 -3 32 -14.5t36 -25.5q27 -24 31.5 -33t-2.5 -28q0 -1 -1 -4q-6 -16 -16 -18q-13 -4 -111 2h-37h-1h-1h-1h-1h-1h-1h-1h-1l-1 1h-1h-1h-1h-1h-1h-1h-1h-1h-1h-1h-2q-57 4 -58 8.5t-16 19.5q-16 17 -20.5 44t5.5 45z" />
    <glyph glyph-name="period" unicode="." horiz-adv-x="119" 
d="M19 110q14 13 26 9.5t36 -27.5q23 -24 27.5 -48t-11 -35.5t-43.5 -2.5q-26 8 -39 47.5t4 56.5z" />
    <glyph glyph-name="slash" unicode="/" horiz-adv-x="427" 
d="M93 219q0 7 32 78t84.5 164.5t93.5 139.5q14 16 23.5 19.5t27.5 -0.5q28 -6 35.5 -11.5t19.5 -28.5q9 -18 8 -27.5t-13 -34.5q-11 -23 -22.5 -37.5t-17 -20.5t-5.5 -13q0 -12 -15 -24q-12 -10 -55 -97.5t-64 -143.5q-13 -34 -40 -89t-37 -68q-8 -9 -11 -31
q-3 -21 -26.5 -39t-39.5 -12q-7 2 -18 17t-21 34l-22 45l41 85q42 85 42 95z" />
    <glyph glyph-name="zero" unicode="0" horiz-adv-x="476" 
d="M192 565q15 10 35.5 9t34.5 -12q4 -2 43 -13t61 -32q12 -11 23 -19.5t15 -12t11 -13t17 -29.5q14 -26 18.5 -51t6.5 -86q-1 -33 0.5 -49t-1.5 -32t-4.5 -22.5t-9 -20t-14 -24t-20 -35.5t-26.5 -53q-23 -49 -44 -53q-36 -8 -108.5 -13.5t-102.5 -2.5q-28 2 -41.5 9.5
t-34.5 32.5q-33 37 -36 55q-8 44 -11 80t-3.5 57.5t5 47t9 35.5t14.5 36.5t15 36.5q12 32 62.5 91.5t85.5 82.5zM339 363l-3 76l-28 2q-33 4 -72 -26.5t-64 -78.5l-31 -60q-15 -29 -16 -89v-60l45 -3q31 -2 47.5 0t34 16t31 36t36.5 68q15 28 18 49t2 70z" />
    <glyph glyph-name="one" unicode="1" horiz-adv-x="339" 
d="M196 606q24 26 53 29t56 -19q16 -12 20 -24t4 -44q0 -49 -14 -83q-11 -27 -31.5 -154.5t-26.5 -216.5q-4 -49 -9 -61t-24 -21t-26.5 -7t-26.5 23q-25 29 -25 58t17.5 158.5t23.5 143.5q8 21 -8 20q-14 -1 -47 -18q-32 -16 -43.5 -17t-32.5 9q-23 11 -37 35t-7 41
q4 12 30 22q31 12 44.5 18.5t27 16.5t19 17t24 29t39.5 45z" />
    <glyph glyph-name="two" unicode="2" 
d="M247 640q43 18 74.5 5.5t84.5 -68.5q50 -53 55 -94t-27 -137q-8 -25 -51 -74t-81.5 -90t-39.5 -47q0 -8 39 -11q23 -2 36 -8.5t28 -23.5q18 -22 23 -41t-6 -26q-8 -5 -162 -30q-47 -8 -69 -11.5t-46.5 -5.5t-33 -1t-20 5.5t-16 10.5l-13.5 18q-8 11 -11 19.5t0.5 22
t12.5 27t31 39t48.5 53.5t72.5 75q65 67 115 122t54 66q9 23 5 53t-22 40.5t-52 -22.5q-20 -20 -39.5 -25t-34.5 1.5t-26.5 17t-17.5 20t-6 12.5q0 14 37.5 56.5t57.5 51.5z" />
    <glyph glyph-name="three" unicode="3" horiz-adv-x="413" 
d="M155 625q7 12 17.5 15.5t37.5 3.5q114 0 172 -98q16 -27 19 -43.5t-1 -57.5q-6 -61 -19 -75q-39 -43 -4 -88q13 -17 17.5 -34t4.5 -54q0 -104 -69 -170q-20 -19 -35 -23t-64 -3q-155 1 -199 66q-20 30 -21.5 45t13.5 32t32 15.5t57 -21.5q75 -38 123 -13.5t48 99.5
q0 33 -16.5 44.5t-64.5 11.5q-40 0 -65 16t-31 46q-6 32 8 44t64 15q42 3 56 8t32 25q33 37 24.5 65.5t-51.5 28.5q-44 0 -73 34t-12 66z" />
    <glyph glyph-name="four" unicode="4" horiz-adv-x="394" 
d="M274 563q17 24 40 25t44 -22q18 -19 23 -42t1.5 -69.5t-17.5 -159.5q-6 -43 -8 -118t-4 -125t-9 -58q-14 -13 -40.5 -9.5t-47.5 21.5q-18 16 -22 32t-6 84q-2 95 -5.5 105.5t-82.5 14.5q-85 4 -111.5 32.5t-13.5 101.5q24 135 46 219q12 16 43 3q32 -13 44 -38t3 -139
l-3 -57l30 -3q31 -2 43 7q8 7 23.5 91t29.5 104z" />
    <glyph glyph-name="five" unicode="5" 
d="M225 597q18 11 73.5 4.5t76.5 -21.5q23 -16 36 -41q14 -29 2 -42.5t-55 -15.5q-47 -3 -47 -11.5t19 -8.5q15 0 36.5 -10t29.5 -12q6 -2 18 -14.5t22 -28.5q17 -25 21.5 -43.5t4.5 -64.5q1 -71 -11 -108q-12 -38 -43.5 -75.5t-70.5 -60.5q-28 -16 -49.5 -20t-77.5 -4
q-80 0 -119 11.5t-61 40.5q-31 41 -15 68t62 10q33 -11 92 -12q52 0 82.5 14.5t62.5 53.5q18 21 23 37.5t5 53.5q1 42 -2 49.5t-19 5.5q-23 -3 -44 -17q-25 -17 -54 -3t-39 46q-18 58 -4.5 129t45.5 90z" />
    <glyph glyph-name="six" unicode="6" horiz-adv-x="430" 
d="M282 581q39 33 78 26t47 -49q5 -30 -6 -44.5t-59 -41.5q-50 -28 -83 -57q-29 -26 -23 -37.5t53 -25.5q35 -9 63 -46t45 -95l14 -52l-26 -53q-17 -34 -30.5 -48t-45.5 -31q-31 -15 -54.5 -20.5t-64.5 -6.5q-45 -1 -63.5 2.5t-42.5 19.5q-45 30 -60.5 56t-20.5 83
q-5 56 5 95t44 90l39 59q17 25 78.5 86.5t70.5 61.5q10 1 42 28zM243 254q-80 33 -97 13q-14 -17 -26.5 -56.5t-10.5 -58.5q2 -17 9 -22t36 -7q39 -2 70 14t45 46q14 29 8.5 43.5t-34.5 27.5z" />
    <glyph glyph-name="seven" unicode="7" horiz-adv-x="396" 
d="M151 149q0 -12 -13.5 -43t-13.5 -51t-17.5 -37t-37.5 -17q-15 0 -41 28q-19 19 -21.5 31.5t1.5 56.5q3 32 7.5 50.5t8 22.5t6 10.5t2.5 17.5q0 16 9 26.5t14 29.5q4 20 33 64.5t31 55.5q5 23 25.5 71.5t30.5 59.5q36 41 -27 47q-41 5 -75 22q-28 14 -50 47.5t-15 51.5
q5 14 19 14t51 -13q46 -16 203 -22q22 -1 61 -33.5t39 -49.5q0 -11 -11.5 -28t-29 -38t-45 -69t-52.5 -109q-24 -56 -44.5 -92t-24.5 -52q-5 -20 -14 -29.5t-9 -22.5z" />
    <glyph glyph-name="eight" unicode="8" horiz-adv-x="517" 
d="M83 460q0 41 13.5 71.5t33.5 46.5t45.5 27t46.5 14.5t39 6t21 5.5q5 3 72 -37t84 -57q30 -29 49.5 -67.5t14.5 -59.5q-5 -22 -59 -78l-54 -57l7 -53q6 -54 -3 -94q-13 -55 -62.5 -92.5t-109.5 -37.5q-38 0 -99 4.5t-104 130.5q-12 30 -12 48.5t15 47.5q27 52 113 84
q9 4 -3 21q-34 51 -41 69t-7 57zM316 475q-21 0 -40 2.5t-27 4t-16.5 0.5t-14.5 -6t-14 -17q-20 -28 -20 -33q0 -8 33 -25t49 -17q21 0 45 18q62 48 64 54q1 4 -8 10q-13 9 -51 9zM285 208q0 20 -11 19q-15 -1 -59.5 1t-63.5 -14q-20 -15 -16.5 -38.5t17.5 -34.5
q30 -24 85 -9q17 5 32.5 29.5t15.5 46.5z" />
    <glyph glyph-name="nine" unicode="9" horiz-adv-x="489" 
d="M185 629q33 19 48 23.5t26 2.5t29 -12t36 -14q32 -6 62 -20.5t41 -36.5q44 -55 50.5 -126t-24.5 -141q-18 -40 -25.5 -53.5t-20.5 -33t-33 -56.5q-25 -46 -66 -91t-49 -60q-10 -20 -49.5 -42.5t-54.5 -38.5q-22 -24 -58.5 -18.5t-64 37t-21.5 50.5t51 43q38 20 82.5 58
t55.5 59q5 9 -3.5 18t-26.5 20t-38.5 23.5t-44 33.5t-39.5 45q-32 52 -34 85t25 90q25 55 55.5 87t90.5 68zM286 503q-9 18 -18.5 16t-38.5 -9q-53 -45 -74.5 -109t19.5 -76q16 -15 27 -15q15 0 43.5 12.5t45.5 30.5q15 17 18 30.5t-1 57.5q-6 65 -21 62z" />
    <glyph glyph-name="colon" unicode=":" horiz-adv-x="140" 
d="M25 111q18 10 26.5 8t33.5 -24q22 -20 24 -28t-7 -36q-17 -51 -38.5 -55t-39.5 41q-14 33 -14 59t15 35zM47 426q20 16 31 15t30 -19q21 -20 21.5 -56t-20.5 -59q-20 -21 -33 -19.5t-35 28.5q-15 18 -18.5 30t-0.5 32q5 32 25 48z" />
    <glyph glyph-name="semicolon" unicode=";" horiz-adv-x="246" 
d="M49 134q12 15 21 13.5t33 -21.5q46 -39 63 -114t-11 -113q-21 -29 -55 -33.5t-60.5 14.5t-29.5 54q-1 14 3.5 22.5t17.5 14.5q50 25 21 105q-9 27 -10 38t7 20zM144 440q8 10 19.5 11.5t23 -6t22 -19.5t18 -29.5t8.5 -35.5q2 -28 -1.5 -35.5t-20.5 -13.5q-15 -5 -24.5 -3
t-23.5 11q-29 22 -35.5 57.5t14.5 62.5z" />
    <glyph glyph-name="less" unicode="&#x3c;" horiz-adv-x="573" 
d="M269 479q8 0 14 4t23.5 17t45.5 27q45 23 62 22.5t38 -25.5q22 -26 23 -42t-18.5 -32t-72.5 -43q-33 -17 -70 -42t-60 -45.5t-19 -24.5q5 -4 26.5 -11t58.5 -20t69 -28l84 -37q53 -22 77.5 -61t2.5 -64q-16 -17 -34 -16t-53 21q-72 40 -189.5 73t-186.5 33q-35 0 -59 29
t-21.5 63.5t33.5 47.5q21 9 92.5 60.5t90.5 68.5q31 25 43 25z" />
    <glyph glyph-name="equal" unicode="=" horiz-adv-x="608" 
d="M16 289q9 8 101 2.5t192 -12.5t180 3q29 4 40 0t35 -26q32 -30 34 -54.5t-26 -35.5q-23 -10 -232.5 -4.5t-253.5 16.5q-40 10 -58 33q-13 17 -17 43t5 35zM441 460q21 14 61 -5t56 -50q12 -25 -2 -42.5t-51 -23.5q-41 -7 -182 -7q-143 0 -200 16.5t-70 61.5q-8 27 6 34
q21 10 174 9h1h1h1h1h1h1h1h1h1h1h1h1h1q181 -3 195 7z" />
    <glyph glyph-name="greater" unicode="&#x3e;" horiz-adv-x="480" 
d="M24 505q14 19 25 18.5t38 -21.5q30 -23 41.5 -23t36.5 -17q29 -21 223 -94q21 -9 44.5 -33t33.5 -50q11 -25 -12.5 -45t-114.5 -66q-34 -18 -62 -33t-42 -23t-24 -14t-15 -8t-10 -2q-13 0 -45 -28q-27 -24 -36.5 -25t-36.5 16q-29 17 -36.5 49t12 54t89 66t91.5 48
q45 9 9 35q-12 9 -32 19q-87 41 -139 79.5t-52 62.5q0 14 14 35z" />
    <glyph glyph-name="question" unicode="?" horiz-adv-x="305" 
d="M77 100q11 13 21 10t37 -26q32 -29 32 -58q0 -27 -11 -39.5t-36 -12.5q-26 0 -45.5 28t-14.5 57q6 28 17 41zM49 620q24 21 43.5 31t35 9t23.5 -3.5t21 -10.5q53 -29 88 -71t35 -76q0 -32 -29.5 -90.5t-62.5 -90.5q-25 -25 -30.5 -38t-5.5 -49q0 -60 -24.5 -71t-64.5 31
q-26 28 -29.5 54.5t12.5 90.5q12 53 43 86q27 28 54 69t27 52q0 15 -17 15t-38 -15q-17 -12 -21.5 -21.5t-3.5 -27.5q3 -35 -20 -33q-20 2 -46 33q-31 38 -29 66.5t39 59.5z" />
    <glyph glyph-name="at" unicode="@" horiz-adv-x="795" 
d="M276 557q55 15 79 15.5t86 -10.5q209 -37 275 -192q23 -53 6 -136t-62 -138q-23 -28 -56 -48t-96 -45q-15 -6 -20.5 -14t-5.5 -23q0 -27 8 -33q10 -5 52 17.5t91 60.5q61 46 78 46q16 0 45 -32.5t29 -50.5q0 -6 -5 -14t-15.5 -17.5t-21 -18t-26.5 -21.5t-27 -23
q-29 -25 -37 -25t-67 -27q-44 -21 -72 -24.5t-144 -3.5q-95 0 -136.5 5t-70 19t-70.5 50q-53 47 -68 92.5t-15 159.5q0 132 24.5 210t83.5 138q37 37 63.5 51t94.5 32zM289 390l22 25h-23q-24 0 -64 -30q-52 -39 -84.5 -123.5t-31.5 -168t38 -120.5q36 -36 75 -50t97 -11
l68 3v101l-37 9q-81 21 -106.5 42.5t-32.5 77.5q-6 45 20.5 128t58.5 117zM604 357q-18 35 -38 37q-13 2 -16.5 -2.5t-3.5 -22.5q0 -28 -8 -43q-10 -19 -28.5 -84t-18.5 -81q0 -20 7.5 -23.5t27.5 8.5q33 20 55.5 53t30.5 73q7 33 5.5 47.5t-13.5 37.5zM417 255q16 68 11 71
q-7 5 -35 -8.5t-40 -27.5q-14 -15 -29.5 -57t-15.5 -64q0 -13 6 -16.5t30 -3.5q33 0 44.5 17t28.5 89z" />
    <glyph glyph-name="A" unicode="A" horiz-adv-x="625" 
d="M260 496q0 8 23 38.5t23 39.5q0 13 40 13q41 0 62 -9.5t26 -22.5t13.5 -38t20.5 -44q12 -18 12 -31q0 -10 10 -34t23 -63.5t19 -82.5q3 -23 5.5 -34t5 -17t11 -26t17.5 -49q21 -62 29 -68q9 -5 8 -30.5t-11 -35.5q-11 -12 -35.5 -10.5t-42.5 14.5q-22 14 -42 57l-20 43
l-105 5q-106 6 -138 13l-33 6l-32 -62q-20 -40 -30.5 -52t-26.5 -14q-20 -2 -54.5 19t-34.5 35q0 6 9 20t33 54t49 90q29 57 48.5 87.5t29.5 53.5q9 21 31 52t39.5 53.5t17.5 29.5zM397 333q-23 75 -33 75q-5 0 -12 -14q-11 -22 -32 -45q-15 -17 -46.5 -71t-31.5 -62
q0 -6 89 -3l89 3l-1 26q-2 26 -22 91z" />
    <glyph glyph-name="B" unicode="B" horiz-adv-x="466" 
d="M115 620q223 41 289 -92q21 -41 11 -113t-40 -102q-7 -5 -6 -12.5t5.5 -12.5l13.5 -15t18 -20.5t18.5 -29.5t15.5 -40q8 -35 7.5 -47t-12.5 -32q-20 -31 -41 -46.5t-74 -35.5q-40 -15 -74 -18.5t-51.5 1t-30 8t-17.5 0.5t-6 -19q-2 -18 -8.5 -23t-28.5 -6
q-20 -2 -33.5 3.5t-34.5 23.5l-34 30l6 175q4 119 15 225t26 160q5 19 15 25t51 13zM289 490v32h-43q-43 0 -59 -10.5t-26 -46.5q-13 -46 -7.5 -65.5t31.5 -22.5q42 -4 73 30t31 83zM237 256q-29 8 -48.5 17.5t-26.5 14.5t-11 5q-9 0 -13.5 -36t-2.5 -83l3 -60l48 2
q38 2 72.5 21.5t49.5 47.5q10 19 -10 38.5t-61 32.5z" />
    <glyph glyph-name="C" unicode="C" horiz-adv-x="566" 
d="M261 671q20 4 34.5 8t17 6t17.5 2t35 -2.5t71 -8.5q42 -5 75 -25t38 -34q5 -13 -9 -101t-16 -77q-7 -8 -22.5 -7t-31.5 10q-67 34 -52 76l2 37l-42 -1q-48 -2 -113 -32t-88 -63q-24 -14 -42.5 -88.5t-11.5 -127.5q16 -59 47 -97.5t57 -28.5q86 41 120.5 46.5t63.5 -17.5
q57 -45 -18 -103q-38 -29 -71.5 -37.5t-96.5 -3.5q-82 6 -131 50.5t-77 139.5q-11 36 -13 121.5t8 110.5q4 11 13 41t19 52.5t25 42.5q22 28 81 59.5t111 51.5z" />
    <glyph glyph-name="D" unicode="D" horiz-adv-x="550" 
d="M73 639q3 8 99 7.5t140 -8.5q54 -10 114 -55t89 -97q22 -38 21.5 -109.5t-22.5 -132.5q-19 -51 -59.5 -101t-82.5 -73q-93 -50 -119.5 -60t-72.5 -10q-62 0 -73 -11q-11 -8 -14 -5.5t-13 9.5t-23 7q-10 0 -15.5 6.5t-11.5 19.5t-14 22t-9 37t3 65t9.5 71.5t11.5 69
t7 44.5q10 75 16.5 134t9 85.5t4 45.5t2.5 25.5t3 13.5zM349 525q-31 12 -86.5 13t-65.5 -10q-5 -6 -11 -61t-13 -128t-12 -105q-9 -46 -11 -78q-2 -23 2 -27t27 -2q24 3 47 13t35.5 19t33.5 26.5l27 22.5q31 23 31 33t13 24q17 20 34 75.5t17 89.5q0 38 -15 58.5t-53 36.5z
" />
    <glyph glyph-name="E" unicode="E" horiz-adv-x="492" 
d="M58 610q33 -7 129.5 -6.5t161.5 7.5q46 5 58 1.5t37 -25.5q22 -21 26.5 -30t-1.5 -25t-20 -21.5t-67 -13.5q-78 -12 -159 -9l-81 3l-3 -45q-3 -41 11 -55t57 -14q23 0 36.5 -5.5t30.5 -22.5q47 -46 16 -72q-12 -10 -64.5 -5.5t-67.5 15.5q-15 12 -18 -18q-3 -22 -1 -76
l3 -77l99 2q61 2 85 -0.5t41 -12.5q55 -33 19 -71q-14 -14 -34.5 -18.5t-92.5 -8.5q-77 -4 -94.5 -8t-31.5 -22l-20 -26l-39 17q-42 19 -53 34q-19 27 -20 137q0 42 1 176q3 278 11 290t45 5z" />
    <glyph glyph-name="F" unicode="F" horiz-adv-x="482" 
d="M69 693q9 22 26 23.5t34 -17.5q11 -11 27.5 -14.5t63.5 -4.5q77 0 141 -10t89 -40q22 -16 25.5 -43.5t-14.5 -49.5q-9 -11 -17 -15t-24.5 -3t-35.5 4.5t-63 9t-94 8.5q-45 3 -55 0t-16 -19q-8 -21 -8.5 -48.5t7.5 -31.5q8 -5 71 -15q53 -8 73 -21.5t32 -48.5q7 -20 6 -29
t-11 -20q-13 -14 -43 -13t-60 8.5t-55.5 14t-28 4t-8.5 -155.5q-4 -135 -12 -150q-3 -7 -15 -12q-21 -8 -45 7.5t-37 45.5q-19 46 1.5 295t45.5 341z" />
    <glyph glyph-name="G" unicode="G" horiz-adv-x="568" 
d="M270 647q34 5 46.5 6.5t16.5 -0.5t4.5 -5t22 0.5t51.5 0.5q34 -4 54.5 -10t37.5 -49q34 -30 38 -45t4 -50q0 -46 -12 -58.5t-41 2.5q-28 15 -34 42t-27 37t-78 15q-44 4 -58.5 1t-51.5 -8q-38 -24 -62 -49q-29 -29 -44 -66t-22 -74q-14 -61 -5.5 -120t32.5 -77
q30 -20 65.5 -30.5t74 -5t74 23.5t50.5 45.5t15 70.5q-4 7 -61 19q-36 2 -49 17t-13 32q0 31 10 38q13 9 100 16q43 4 59 2t28 -13q45 -40 53 -103q4 -30 -2.5 -49.5t-21 -41t-21.5 -39.5q-4 -12 -33 -27t-41 -29q-24 -26 -77 -45.5t-102 -19.5q-37 0 -51.5 2.5t-33 11.5
t-39.5 16q-31 10 -61.5 42t-42.5 67q-13 36 -18 111.5t2 120.5q7 53 31 96.5t69 87.5q80 78 164 91z" />
    <glyph glyph-name="H" unicode="H" horiz-adv-x="540" 
d="M74 681q6 10 17 7.5t47 -22.5q28 -16 35 -25.5t7 -30.5q0 -22 -4.5 -51t-8.5 -47.5t-5 -38.5t6 -23q10 -10 114 -2l103 8l19 96q19 97 26 108q10 14 25 9.5t41 -29.5l34 -33l-6 -57q-4 -36 -6.5 -89.5t-6 -86.5t-14.5 -55q-14 -31 -21.5 -130t-13.5 -175q-9 -12 -19 -10
t-58 25q-32 15 -26 209l6 85h-111q-111 0 -112 -2.5t-11 -148.5l-12 -166l-34 -3q-25 -2 -32.5 4t-23.5 60q-16 34 -18 53.5t4 85.5q14 157 33.5 310.5t25.5 164.5z" />
    <glyph glyph-name="I" unicode="I" horiz-adv-x="174" 
d="M61 629q4 12 23.5 11t44.5 -16q26 -14 33 -44.5t-3 -84.5q-12 -60 -20.5 -165t-8.5 -191q0 -105 -10 -123q-10 -20 -32.5 -17t-45.5 27q-18 18 -23 34.5t-7 59.5q-5 95 12 271t37 238z" />
    <glyph glyph-name="J" unicode="J" horiz-adv-x="420" 
d="M263 672q21 0 43.5 8.5t43.5 8.5q25 1 44.5 -32.5t13.5 -67.5l-2 -16.5t-5 -36t-8.5 -51.5t-12.5 -64.5t-18 -74t-23 -80.5t-28.5 -83t-35.5 -84q-20 -41 -35 -62.5t-34 -34.5q-21 -14 -31 -16t-20 5q-18 11 -31 11q-17 0 -53.5 41.5t-47.5 74.5q-19 56 -11.5 108.5
t35.5 57.5q15 3 44 -36q17 -24 22 -38.5t2 -35.5q-5 -40 14 -50q9 -5 19 4q15 13 52.5 92t37.5 98q0 11 22.5 74t27.5 101q4 32 1 43t-23 30q-17 16 -22.5 29t-5.5 37q0 28 4 34t21 6z" />
    <glyph glyph-name="K" unicode="K" horiz-adv-x="528" 
d="M122 669q11 9 18.5 7t33.5 -22q36 -29 41.5 -43t-14.5 -81q-10 -35 -15 -57.5t-3 -31.5t6.5 -11t15 4t20.5 13.5t25 17.5t27 16q35 17 70.5 48.5t45.5 53.5q18 45 58 45q16 0 38 -25t22 -43q0 -32 -55.5 -97t-98.5 -82q-58 -24 2 -45q29 -10 59 -39.5t48 -64.5
q19 -37 24 -110t-9 -95q-15 -23 -28 -23q-14 0 -42 30.5t-28 44.5q0 9 -8 20t-4 40q5 38 -7 60.5t-46 39.5q-36 17 -97 38t-65 18q-3 -4 -20.5 -112.5t-20.5 -141.5q-2 -20 -7.5 -28t-19.5 -13q-25 -8 -46 10.5t-33 59.5q-8 20 -4 61.5t11.5 74.5t17 82t12.5 83
q6 55 18.5 112.5t25 100.5t13.5 46q5 24 19 39z" />
    <glyph glyph-name="L" unicode="L" horiz-adv-x="463" 
d="M102 605q6 18 38 -8q26 -22 39 -50q14 -30 13 -58q-2 -30 -31 -194q-3 -16 -8 -43q-4 -22 -6 -31.5t-3.5 -24.5t-2.5 -20t1 -14t3 -11t7 -6.5t10 -5t15 -2t18.5 -1.5h24.5h34l114 -3l39 -30q23 -18 30.5 -30.5t7.5 -29.5t-5 -25t-20 -13q-26 -10 -43 -3q-20 8 -114.5 7.5
t-142.5 -8.5q-45 -7 -67.5 1t-42.5 38q-9 14 -8 34.5t12 87.5q26 147 33 186.5t16 77.5t20 94q16 73 19 85z" />
    <glyph glyph-name="M" unicode="M" horiz-adv-x="673" 
d="M590 699q13 8 43 -23t30 -52q0 -17 -27 -73t-26 -60q2 -6 -7.5 -37.5t-20 -99.5t-9.5 -190q0 -151 -47 -163q-21 -5 -47 21q-23 24 -26.5 56t6.5 125q11 104 7 146q-3 3 -11.5 -8.5t-20 -33.5t-22.5 -48q-28 -67 -42 -93t-28 -38t-43 -22q-32 -11 -54 -1q-23 11 -43.5 58
t-30.5 112q-5 30 -12 34q-6 4 -10 -9q-8 -26 -13 -155q-3 -83 -7 -104.5t-20 -36.5q-46 -47 -84 23q-13 23 -14.5 45t3.5 90q13 183 31 318.5t30 147.5q11 12 41.5 -10t54.5 -58q29 -43 42 -72.5t25 -77.5q11 -47 23.5 -81t18.5 -34q4 0 9 12t16 34.5t23 41.5q11 15 22.5 36
t29.5 43.5t59 65.5q27 29 52.5 62t33.5 50q11 25 19.5 34.5t24 15.5t21.5 9z" />
    <glyph glyph-name="N" unicode="N" horiz-adv-x="561" 
d="M133 622q10 12 17.5 9.5t26.5 -23.5q38 -40 67.5 -88.5t42.5 -89.5l27 -86q6 -22 4.5 -34t-0.5 -24.5t10 -23.5q11 -14 14.5 -14t13.5 13q13 18 13 37q0 13 27.5 105.5t27.5 113.5q0 30 13 70.5t24 44.5q14 4 36.5 -10.5t32.5 -35.5q17 -33 11.5 -104t-30.5 -129
q-10 -24 -29 -106.5t-26 -131.5q-13 -96 -63 -116q-38 0 -58 21q-17 18 -61 104t-60 153q-6 26 -13 43.5t-10 16.5q-9 -3 -21 -57l-41 -191q-10 -45 -35.5 -72.5t-45.5 -16.5q-46 25 -46 89q0 31 9 77t20 66q8 16 8 36q0 12 6.5 39.5t18.5 73t20 87.5q10 50 24.5 95.5
t24.5 58.5z" />
    <glyph glyph-name="O" unicode="O" horiz-adv-x="575" 
d="M270 664q18 6 30.5 6t26.5 -4t34.5 -20t44.5 -38t66 -62q30 -29 57 -79t34 -91q6 -34 -10 -92t-45 -108q-23 -38 -76.5 -87.5t-71.5 -49.5q-13 0 -49 -19q-29 -15 -77 -18t-56 9q-5 9 -21 9q-25 0 -69.5 53t-63.5 107q-10 28 -12.5 53t0.5 72q4 70 15.5 106t46.5 88
q87 129 196 165zM435 447q-14 29 -33 44.5t-35.5 17t-33 8t-24 8.5t-10.5 0q-21 3 -34 -9q-35 22 -79 -89q-43 -63 -55 -95t-12 -86q0 -66 16.5 -95.5t53.5 -29.5q44 0 81.5 17t94.5 62q5 5 17 20t27.5 41t25.5 56t12.5 64.5t-12.5 65.5z" />
    <glyph glyph-name="P" unicode="P" horiz-adv-x="482" 
d="M65 568q10 12 26.5 14.5t69.5 -0.5q86 -4 121 -13t83 -38q98 -59 98 -155q0 -30 -9 -44.5t-57 -60.5q-50 -47 -63.5 -54t-44.5 -3q-23 3 -58.5 12t-59.5 15t-32 3q-9 -4 -13 -25.5t-9 -75.5t-9 -89q-5 -37 -10.5 -44t-29.5 -9q-20 -2 -29.5 2t-17.5 16q-18 27 -20 58
t9 113l22 172q4 33 12 82.5t10 71.5t0 26q-6 9 11 26zM304 449q-28 13 -84.5 17t-62.5 -6q-4 -7 -10 -45q-5 -25 -2.5 -33.5t16.5 -15.5q27 -15 68 -19t60 6q25 13 45 36t15 32q-7 11 -45 28z" />
    <glyph glyph-name="Q" unicode="Q" horiz-adv-x="602" 
d="M249 559q43 20 79.5 20.5t86.5 -16.5q48 -17 81 -42t61 -65q21 -30 24.5 -45.5t0.5 -58.5q-4 -65 -34.5 -133.5t-79.5 -122.5l-52 -58l13 -38q12 -39 20 -50q7 -10 -11.5 -38.5t-32.5 -28.5q-16 0 -38 26.5t-30 54.5l-10 38l-90 -1q-61 -1 -82 3t-49 20q-45 27 -69.5 68
t-31.5 103q-15 128 35 203q26 39 86.5 85.5t122.5 75.5zM445 445q-48 22 -80.5 19.5t-91.5 -31.5q-63 -30 -104.5 -68t-51.5 -75q-12 -42 -10.5 -95.5t14.5 -64.5q13 -10 86 -11.5t83 8.5t-5 44q-14 35 -11.5 73t19.5 42q14 2 47 -30.5t33 -48.5q0 -34 50 47l2 4
q29 47 45.5 95t10.5 65q-5 13 -36 27z" />
    <glyph glyph-name="R" unicode="R" horiz-adv-x="434" 
d="M58 675q3 8 21.5 9t72.5 -2q55 -4 82.5 -10t60.5 -24q169 -86 92 -264q-37 -83 -96 -83q-44 0 -4 -46q3 -4 7 -7q33 -36 57 -76t55 -119q-1 -7 -9 -18.5t-19 -19.5q-17 -13 -24.5 -13.5t-23.5 7.5q-10 6 -21 19t-16 26q-10 25 -79 122t-78 97q-8 0 -12 -62
q-8 -106 -15 -141.5t-21 -51.5q-19 -20 -32 -18.5t-34 26.5q-15 19 -19.5 35t-4.5 54q0 73 24 297t36 263zM252 538q-65 16 -87.5 1t-17.5 -72l2 -33l114 -6l19 38q20 38 15.5 49.5t-45.5 22.5z" />
    <glyph glyph-name="S" unicode="S" 
d="M146 654q22 18 39.5 25.5t32 8t56.5 1.5t86 5q19 2 39.5 -13t37.5 -43q11 -19 13.5 -38t-1.5 -71q-4 -63 -16 -87.5t-34 -15.5q-19 7 -36 45t-12 61l6 27h-58q-42 0 -55.5 -5t-36.5 -28q-30 -29 -37.5 -48t2.5 -38q7 -13 49.5 -48t92.5 -69q36 -24 61.5 -69.5t25.5 -85.5
q0 -47 -26.5 -94t-61.5 -61q-56 -24 -103.5 -8t-100.5 76q-49 56 -62 56q-5 0 -14.5 12t-18.5 29q-20 40 -12 56.5t47 14.5q24 -1 39.5 -11.5t51.5 -50.5l61 -49h31q36 12 49.5 37t-5.5 46q-12 13 -43.5 32t-64.5 47q-99 82 -105 180t83 174z" />
    <glyph glyph-name="T" unicode="T" horiz-adv-x="642" 
d="M122 661q68 1 159.5 9.5t184.5 8.5l124 -30l21 -32q18 -26 20.5 -48.5t-11.5 -33.5q-7 -6 -48 5.5t-89.5 7.5t-70.5 -8l-37 -8l-21 -78q-47 -169 -67 -303l-14 -93q-5 -29 -14.5 -39.5t-36.5 -17.5q-24 -6 -41 14q-19 23 -27.5 39t-8 39.5t5 44t14.5 70.5t17 99
q4 24 11.5 57t14.5 57t13 50.5t6.5 38t-4.5 18.5q-9 5 -76.5 2.5t-87.5 7.5q-31 17 -48 59.5t3 55.5q11 6 108 8z" />
    <glyph glyph-name="U" unicode="U" horiz-adv-x="570" 
d="M69 615q21 23 36.5 21.5t45.5 -29.5q11 -11 16 -15.5t9 -15t4 -15.5t-3 -24t-7 -33t-15 -50q-20 -71 -18.5 -195.5t22.5 -142.5q13 -10 68.5 15t86.5 55q116 112 116 311q1 69 12.5 84.5t48.5 -3.5q18 -10 28.5 -16.5t19 -17t12 -20t6 -28.5t2 -38.5t-2.5 -54.5
q-4 -80 -9.5 -105.5t-29.5 -71.5q-25 -47 -51.5 -84.5t-49.5 -61t-49.5 -40t-45 -24t-43.5 -11.5t-37 -4.5t-33 -0.5h-13q-68 0 -84.5 4t-37.5 23q-28 27 -28 42t-7 23q-23 25 -29 174t13 221q6 19 12.5 47t9 36.5t9 21t16.5 23.5z" />
    <glyph glyph-name="V" unicode="V" horiz-adv-x="546" 
d="M16 579q5 13 36 12.5t50 -14.5q22 -15 35 -49.5t22 -100.5q26 -184 38 -184q4 0 25.5 30.5t52.5 76t49 67.5q34 42 63 84q27 40 47.5 45t58.5 -20q48 -31 44.5 -39.5t-51.5 -96.5q-37 -38 -61 -70.5t-33 -48.5t-13 -19t-16 -25.5t-30 -53.5t-35 -51q-26 -30 -45 -67
q-16 -33 -36.5 -46t-37.5 -9.5t-33 14t-23.5 18.5t-8.5 11q-22 34 -65.5 271.5t-32.5 264.5z" />
    <glyph glyph-name="W" unicode="W" horiz-adv-x="771" 
d="M48 595q39 0 74.5 -49t35.5 -104q0 -14 8 -25.5t12 -46.5q7 -58 24 -57.5t43 58.5q17 38 52 95t37 65q4 13 36 15q20 2 32 -4t31 -25q7 -8 12 -14.5t9 -12t6.5 -14t4 -13t2.5 -17t1.5 -18t1 -23.5t1.5 -28q2 -57 5 -151q3 0 12 64.5t22.5 93t30 59.5t42 63t52.5 52t58 16
t52 -31q39 -50 -9 -85q-28 -20 -63.5 -70t-57.5 -100q-19 -45 -50.5 -135t-38.5 -122q-5 -18 -12 -23t-29.5 -7t-33.5 3t-28 24q-26 31 -26 46q-1 35 -13 97t-20 73q-9 12 -13 11t-16 -17q-17 -22 -54 -91q-35 -66 -58 -73.5t-61 32.5q-32 35 -32 51q0 9 -3.5 18.5t-13 32
t-21.5 57.5t-33 109.5t-45 173.5q-5 20 0 33.5t34 13.5z" />
    <glyph glyph-name="X" unicode="X" horiz-adv-x="607" 
d="M428 642q33 46 47 58.5t32 12.5q27 0 57 -29q29 -28 30 -43q2 -25 -54 -97q-19 -25 -72 -91q-75 -93 -75 -104q0 -7 6.5 -31t18.5 -66.5t21 -79.5q6 -26 12 -43t9.5 -22.5t6 -19t3.5 -37.5l1 -48l-44 -3q-23 -1 -39.5 5t-27 16t-20.5 31.5t-16 40.5t-17 54.5t-21 61.5
q-7 19 -58 -45q-28 -35 -47 -98q0 -15 -30 -37t-58 -26q-23 -3 -36 0t-34 18q-31 21 -34.5 43.5t22.5 39.5q14 9 27.5 28t53.5 88.5t80 115.5q65 73 65 81t-33 126q-32 111 -23 130q7 16 46 9q23 -4 48.5 -21.5t25.5 -28.5q0 -7 19 -50q15 -33 19.5 -36.5t18.5 9.5
q18 17 70 88z" />
    <glyph glyph-name="Y" unicode="Y" horiz-adv-x="420" 
d="M65 485q0 6 -16 33.5t-29 56t-6 39.5t31.5 9t45.5 -15q24 -13 46.5 -51t37.5 -68.5t23 -30.5q9 0 58 73q34 51 46.5 62.5t33.5 11.5q26 0 47 -21.5t21 -49.5q0 -14 -49 -94t-107 -168.5t-69 -110.5l-33 -65q-16 -28 -16 -44q-1 -6 -9.5 -16.5t-19.5 -18.5l-29 -20l-30 30
q-16 15 -24.5 28t-12.5 35t7.5 52.5t39.5 69.5q31 44 31 49t13.5 24t23 40t2.5 36q-4 7 -12.5 29.5t-17 41t-15.5 27.5q-12 14 -12 26z" />
    <glyph glyph-name="Z" unicode="Z" horiz-adv-x="469" 
d="M66 597q-16 38 -2 46.5t79 11.5q52 3 86 6q25 2 104 -18.5t92 -32.5q15 -13 16 -35t-11 -43q-8 -13 -62.5 -88t-90.5 -122q-19 -25 -19 -33.5t-17 -30.5q-13 -18 -31 -59.5t-13 -46.5q3 -3 76 10q68 13 98.5 12.5t56.5 -15.5q16 -9 22.5 -19.5t7.5 -31.5
q3 -30 -10.5 -49.5t-37.5 -19.5q-30 2 -67.5 -10.5t-46.5 -13.5q-13 -2 -47 -8t-87 -11q-58 -5 -89.5 7.5t-49.5 46.5q-11 22 -12.5 43t7 41.5t19 38t26 42.5t24.5 44q4 10 29 51t39 68q10 23 32 57t37.5 57.5t15.5 27.5q0 5 -46 5q-42 0 -78.5 20.5t-49.5 51.5z" />
    <glyph glyph-name="bracketleft" unicode="[" horiz-adv-x="497" 
d="M161 496q12 23 29 58q13 26 17.5 36t14.5 22.5t14 15t18.5 5.5t24.5 2t35 -2q11 -1 17 -1q71 -4 113.5 -20.5t42.5 -41.5q0 -19 -23.5 -27.5t-76.5 -8.5h-65l-34 -71q-22 -47 -32.5 -71t-22.5 -60.5t-17 -71.5q-5 -31 -15 -59t-16 -48q-11 -42 -29 -102q-23 -76 -18 -92
q5 -19 51 -21h42q68 0 98.5 -7t51.5 -27q19 -17 22.5 -40.5t-11.5 -33.5q-12 -7 -114 -4t-131 12q-40 12 -78.5 30.5t-47.5 30.5q-10 13 -11 58t8 62q7 12 23 83t28 95q13 25 20.5 75t12.5 56q4 5 12 34t21 68.5t26 65.5z" />
    <glyph glyph-name="backslash" unicode="\" horiz-adv-x="234" 
d="M12 604q5 12 24.5 12t44.5 -13q13 -7 24 -20.5t18 -28.5t14 -39t11 -42.5t10.5 -49.5t10.5 -50q19 -81 29.5 -155.5t17.5 -113.5q12 -60 5.5 -85.5t-33.5 -25.5q-30 0 -46 13.5t-26 49t-20 111.5q-15 118 -43 255.5t-40 157.5q-6 10 -1 24z" />
    <glyph glyph-name="bracketright" unicode="]" horiz-adv-x="492" 
d="M216 -6q0 10 14 41.5t14 60.5q0 34 9 50q22 40 59 202.5t27 178.5q-4 7 -30 7q-34 0 -67 43t-22 73q4 9 11.5 10t34.5 -3q51 -8 96.5 -12t61 -10t32.5 -26q42 -47 17 -71q-5 -6 -18 -74.5t-28 -148.5t-24 -104q-11 -30 -33.5 -120t-32.5 -112q-6 -12 -14.5 -55.5
t-19.5 -66.5l-14 -29l-112 4q-75 2 -97.5 6t-39.5 18q-26 22 -28 50l-2 27l92 7q71 5 92.5 15.5t21.5 38.5z" />
    <glyph glyph-name="a" unicode="a" horiz-adv-x="402" 
d="M180 406q28 8 99 9q39 0 52 -1.5t20 -6.5t17 -21q15 -23 15.5 -57t-7.5 -69t-16.5 -98.5t-9.5 -127.5q0 -92 -19 -81q-22 -21 -53.5 -2.5t-33.5 36.5q-4 18 -9.5 21t-25.5 -2q-41 -9 -87 -4t-66 21q-52 42 -54 112t46 140q27 39 27 48q0 11 41 43.5t64 39.5zM272 321
q-4 10 -11 10.5t-31 -9.5q-41 -16 -84.5 -79t-43.5 -107q0 -15 5.5 -19t25.5 -4q21 0 37.5 11.5t28.5 22t26 9.5q12 -1 18 11.5t17 64.5q16 78 12 89z" />
    <glyph glyph-name="b" unicode="b" horiz-adv-x="434" 
d="M139 703q19 29 63 -33q18 -25 21.5 -35.5t-3.5 -23.5q-11 -23 -20 -58t-4 -42q5 -8 52 -8q33 0 46.5 -7t46.5 -41q48 -48 60 -74.5t11 -78.5q-1 -60 -31 -123.5t-74 -99.5q-34 -29 -88.5 -55t-80.5 -26q-22 0 -71 23q-40 19 -54.5 43.5t-14.5 72.5q0 26 21.5 135
t29.5 121q4 7 17 69.5t32.5 135.5t40.5 105zM309 347q-2 14 -9 18.5t-27 5.5q-29 2 -60 -9t-48 -29q-14 -15 -36.5 -101t-15.5 -97q6 -10 27 -2.5t41 26.5q23 21 44 27q31 9 60 65t24 96z" />
    <glyph glyph-name="c" unicode="c" horiz-adv-x="373" 
d="M161 452q63 12 86.5 6.5t60.5 -41.5q29 -28 37.5 -42t6.5 -30q-4 -28 -25 -28.5t-51 26.5q-27 24 -45.5 23t-62.5 -29q-35 -22 -49 -52t-14 -83q0 -50 10 -63.5t52 -19.5q23 -4 35 -1.5t26 14.5q31 24 69 10.5t50 -53.5q5 -16 -16 -39t-56 -41q-18 -9 -35.5 -10t-59.5 6
q-40 7 -60.5 15t-43.5 28q-34 29 -51.5 69t-23.5 101q-6 65 8 91t14 36t27.5 40.5t49.5 44.5q21 14 61 22z" />
    <glyph glyph-name="d" unicode="d" horiz-adv-x="485" 
d="M389 649q9 23 30 18t41 -34q14 -21 17 -35.5t-1 -46.5q-6 -50 -14 -61q-6 -7 -29.5 -78.5t-28.5 -99.5q0 -1 -17 -68.5t-27 -138.5q-11 -82 -20 -93.5t-95 -11.5q-52 0 -77.5 4t-50.5 15q-42 20 -69 48t-32 57q-7 37 1.5 93t25.5 88q36 69 106 114t127 36q26 -4 41.5 3.5
t15.5 25.5q0 21 56 165zM278 335q0 4 -23 4q-21 0 -68 -41.5t-47 -60.5q0 -12 -8.5 -22t-13.5 -33q-7 -30 10 -46.5t56 -16.5q26 0 34 4t15 21q6 15 25.5 98t19.5 93z" />
    <glyph glyph-name="e" unicode="e" horiz-adv-x="498" 
d="M126 476q50 16 132 15t119 -18q56 -24 78 -61.5t22 -108.5q0 -42 -4.5 -54t-27.5 -31q-22 -17 -42.5 -22t-88.5 -8q-125 -5 -186 11q-17 4 -17 -14q0 -24 24 -41q25 -18 99 -29.5t94 -0.5q40 21 79 -9q16 -12 20 -23t2 -35l-3 -38l-55 -6q-49 -6 -134 3t-116 24
q-32 14 -64 54t-44 80q-19 72 -11.5 136t41 112.5t83.5 63.5zM368 375q-13 8 -73 9t-80 -6q-20 -8 -53.5 -36t-33.5 -37q0 -10 45 -17t82 -3q53 7 87 24.5t34 39.5t-8 26z" />
    <glyph glyph-name="f" unicode="f" horiz-adv-x="562" 
d="M299 650q55 20 124 8.5t96 -44.5q13 -17 14 -23.5t-7 -14.5q-13 -12 -59 -4q-27 5 -36.5 2t-27 -5t-23.5 -4.5t-25 -10.5t-13.5 -9t-22.5 -29q-37 -35 -62.5 -64.5t-25.5 -35.5q0 -14 46 -15.5t106 -5t83 -20.5q27 -20 35 -44.5t-7 -39.5q-12 -12 -48 -13.5t-78.5 1
t-94.5 -3.5l-44 -6l5 -34q2 -12 7.5 -68.5t9.5 -94.5q4 -33 -7 -42.5t-28 -20.5q-17 -12 -23.5 -11.5t-20.5 12.5q-27 25 -34 74.5t-3 143.5q-3 28 -18 48q-39 23 -81 25.5t-37 31.5l-2 30q-1 11 40 16q30 3 50.5 14t24.5 34q4 28 27.5 69.5t48.5 67.5q29 30 75 64t36 22z
" />
    <glyph glyph-name="g" unicode="g" horiz-adv-x="419" 
d="M198 434q59 10 100 6q70 -6 95.5 -87t5.5 -231q-17 -131 -25.5 -180.5t-16.5 -71t-25 -37.5t-54.5 -23.5t-40.5 -9.5q-9 -5 -50 9.5t-77 35.5q-69 41 -95 133q-18 67 26 91q22 12 52.5 -21t30.5 -70q0 -17 25 -36.5t48 -19.5q33 0 51 22t25 71q1 5 2 13q3 21 4.5 30.5
t2.5 22.5t1 17t-3 10.5t-5 7.5t-10 4t-13.5 3t-18.5 1q-5 1 -8 1q-63 5 -97 18.5t-59 41.5q-35 40 -26.5 94.5t57.5 104.5q26 27 42.5 35.5t55.5 14.5zM294 294q-1 13 -7.5 22.5t-14.5 9.5t-14 -8q-6 -10 -34 -10q-22 0 -48.5 -21.5t-19.5 -33.5q6 -10 64.5 -9t66.5 11
q9 11 7 39z" />
    <glyph glyph-name="h" unicode="h" horiz-adv-x="450" 
d="M154 163q0 -6 -18 -55t-18 -75q0 -21 -17.5 -29.5t-40.5 -0.5t-38 29q-12 17 -14.5 84.5t8.5 74.5q4 2 5.5 20t6 84.5t12.5 143.5q13 129 13 149t14 34q9 9 16.5 9t26.5 -8q36 -15 45 -41.5t4 -103.5q-1 -24 -2 -45t-1 -32t1 -12q2 0 28.5 13.5t60 27.5t50.5 14
q47 0 90.5 -47t49.5 -105q4 -30 -5.5 -85.5t-20.5 -70.5q-6 -9 -13 -55q-5 -33 -22 -60t-34 -27q-11 0 -39 24q-17 14 -22.5 26t-5.5 32q0 18 2 26.5t5.5 13t10 26t14.5 57.5q4 20 8 38.5t6 27t4 16t1.5 11t-1.5 6.5t-4 8q-6 9 -13 8.5t-28 -12.5q-21 -10 -37 -26.5
t-35 -40.5t-32 -37q-21 -21 -21 -35z" />
    <glyph glyph-name="i" unicode="i" horiz-adv-x="230" 
d="M68 397q15 20 41.5 7t37.5 -46q7 -19 6.5 -34.5t-9.5 -42.5q-33 -107 -33 -143q0 -14 26.5 -14t55.5 -33q25 -29 24 -41t-28 -32q-25 -18 -68.5 -18t-65.5 18q-27 25 -38 55.5t-10 83.5q1 65 10 96l26 82q15 50 25 62zM110 578q12 14 25 14q15 0 45.5 -34t30.5 -50
q0 -15 -17.5 -34.5t-30.5 -19.5q-18 0 -36 25.5t-22.5 53t5.5 45.5z" />
    <glyph glyph-name="j" unicode="j" horiz-adv-x="352" 
d="M209 400q25 31 71 -21q18 -20 23 -35t5 -45t-7.5 -64t-13 -54.5t-3 -24.5t-0.5 -31.5t-8.5 -72t-7.5 -67.5q-8 -84 -24.5 -125.5t-46.5 -51.5q-35 -13 -53 -7.5t-54 38.5q-34 30 -52.5 63.5t-27.5 80.5q-5 22 -2 30t20 19q18 12 25 10t31 -25q32 -32 37 -52
q4 -16 11.5 -20t14.5 7q5 9 9 53q11 115 29.5 251.5t23.5 143.5zM268 459q-26 20 -32 64q-7 43 19 44q17 1 45 -19q59 -44 31 -87q-14 -20 -27 -20.5t-36 18.5z" />
    <glyph glyph-name="k" unicode="k" horiz-adv-x="411" 
d="M48 543q11 65 16.5 79t18.5 10q19 -5 48 -5q18 0 26.5 -5.5t18.5 -22.5q10 -20 10 -39t-10 -81q-15 -91 -15 -130v-38l133 142l32 -11q40 -13 50.5 -20.5t15.5 -28.5q5 -17 -4 -32.5t-64 -62.5q-64 -72 -41 -80q3 -4 15 -4q25 0 44.5 -23t29.5 -63q11 -48 1.5 -118
t-29.5 -80q-15 -8 -41 1t-49 30q-14 13 -17 27.5t-1 65.5l3 73q-15 23 -48 23t-43 -23l-5 -48q-5 -47 -26 -65q-16 -14 -22.5 -14t-32.5 14q-23 12 -35 22.5t-17.5 20.5t-5.5 28.5t2 37t5 56.5t3 77q1 92 9 142z" />
    <glyph glyph-name="l" unicode="l" horiz-adv-x="285" 
d="M71 584q9 12 27 11t36 -9t31 -23.5t13 -30.5q0 -19 -22 -112q-20 -83 -24.5 -171.5t7.5 -109.5q10 -20 44 -26q36 -6 61.5 -25t22.5 -37q-1 -10 -13 -21t-33 -19.5t-46.5 -10.5t-59 9.5t-65.5 37.5q-40 33 -47 132t22 223q40 173 46 182z" />
    <glyph glyph-name="m" unicode="m" horiz-adv-x="640" 
d="M351 147q0 -12 -22.5 -59.5t-22.5 -60.5q0 -15 -8.5 -21t-26.5 -6q-20 0 -49.5 31.5t-19.5 32.5q0 18 17 54q16 33 23.5 79.5t-11.5 72.5q-41 15 -69.5 -17t-30.5 -44q-6 -18 -12.5 -31t-10 -22t-5.5 -25q-3 -27 -8 -122q-17 -10 -25 -9.5t-25 10.5q-25 15 -34 30.5
t-9.5 82t7.5 132.5q11 126 20 143q8 15 34.5 14.5t46.5 -16.5q16 -13 35.5 -13.5t36 5t38.5 5.5t42 -10q7 -4 19 -10q49 -27 60 -29t28 12l6 6q25 20 59.5 25t67.5 -4.5t61.5 -32t42.5 -53.5q17 -42 17 -82q0 -45 -19.5 -128t-32.5 -93q-21 -16 -45.5 -11t-25.5 15l-30 31
l21 77q44 162 -27 158q-18 -7 -72 -61q-41 -42 -41 -56z" />
    <glyph glyph-name="n" unicode="n" horiz-adv-x="406" 
d="M56 403q7 35 12.5 41.5t27.5 6.5q31 0 55 -18q15 -12 24.5 -13t15 4.5t20 11.5t35.5 6q88 0 134 -117q14 -34 15.5 -114.5t-10.5 -135.5q-8 -40 -29.5 -58.5t-45.5 -8.5t-42 46q-9 19 -9.5 35.5t6.5 53.5q12 62 11.5 112t-13.5 50q-19 0 -65.5 5t-65.5 -51
q-25 -73 -2 -209q-1 -15 -19.5 -36t-31.5 -21q-10 0 -40 27q-19 17 -24 30t-5 43q0 46 14 131l18 108q4 22 14 71z" />
    <glyph glyph-name="o" unicode="o" horiz-adv-x="507" 
d="M133 427q38 34 63 53t47 28.5t39 6t35 -17.5q23 -18 36 -13q17 7 54 -16t58 -52q26 -38 31.5 -98.5t-12.5 -113.5q-14 -42 -62.5 -106t-77.5 -78q-14 -7 -29.5 -18t-24 -14.5t-16.5 -0.5q-6 3 -11 1.5t-7.5 -5t-16.5 -6.5t-37 -3q-27 0 -46.5 6t-46.5 23q-44 27 -61.5 49
t-27.5 63q-22 90 5 164.5t108 147.5zM360 241q0 8 9.5 22t18.5 32.5t7 38.5q-2 18 -8 25.5t-20 5.5t-40 0t-65 1t-55 -8q-22 -4 -36.5 -49t-30.5 -77q-16 -33 -15 -79l2 -46q0 -16 44 -18t67 13l32 20q61 64 90 119z" />
    <glyph glyph-name="p" unicode="p" horiz-adv-x="475" 
d="M117 459q13 8 112 7q67 -1 89.5 -5t52.5 -22q39 -22 50.5 -36t27.5 -56q18 -45 13 -108t-29 -112q-17 -34 -49.5 -65.5t-51.5 -32.5q-13 0 -31 -13q-16 -12 -68 -13.5t-63 10.5q-27 26 -35 -26q-2 -11 0 -46q-3 -54 -8 -97l-6 -44h-39q-31 0 -46.5 13.5t-24.5 47.5
q-4 16 3.5 87t12.5 110q3 7 8 44t11 70.5t11 36.5t9 30.5t8.5 61t10.5 46.5q4 10 9 37.5t10 49t13 25.5zM340 335q-15 12 -35.5 13.5t-68.5 -5.5l-36 -6l-11 -59q-11 -60 -17 -109l-7 -50l43 5q31 3 54 15t33 24.5t18.5 26t12.5 15.5q7 6 20 60q9 38 8 48.5t-14 21.5z" />
    <glyph glyph-name="q" unicode="q" horiz-adv-x="374" 
d="M215 438q52 14 73 11t46 -29l30 -31l-5 -109q-6 -142 -38.5 -278t-71.5 -186q-13 -16 -41 -16q-17 0 -25 6t-17 25q-14 29 -14.5 51.5t12.5 47.5q8 17 12.5 26.5t4.5 19.5t-3.5 15t-15 13t-25 14t-39.5 17q-79 32 -87 150q-2 36 1 57t16 49q26 60 68 92.5t119 54.5z
M233 169q7 38 10 68.5t1.5 46t-6.5 16.5q-26 6 -75 -45.5t-49 -85.5q0 -26 17 -37t56 -11h37z" />
    <glyph glyph-name="r" unicode="r" horiz-adv-x="376" 
d="M60 450q19 27 38 17t33.5 -35t14.5 -41q0 -8 6 -11t14.5 0t15.5 12q11 13 60 27q32 9 45.5 9.5t35.5 -8.5q24 -11 33.5 -24.5t9.5 -41.5q0 -36 -86 -54q-47 -9 -101 -39t-70 -180q-3 -23 -10.5 -35.5t-9.5 -42.5l-29 -5l-36 8q-19 22 -17 47.5t5 67.5q11 122 25 218.5
t23 110.5z" />
    <glyph glyph-name="s" unicode="s" horiz-adv-x="376" 
d="M100 328q0 32 13 62t32.5 49.5t38 32t33.5 16.5q2 0 47.5 -9.5t74.5 -41.5q23 -27 26 -41t-12 -27q-14 -11 -38 -6t-44 11t-47 -9q-26 -17 -23 -38.5t32 -35.5q20 -9 29 -18.5t23 -30.5t28 -38q15 -19 20.5 -34.5t5.5 -41.5q0 -43 -8.5 -59t-43.5 -40q-24 -17 -41.5 -22
t-48.5 -5q-66 0 -120.5 33t-64.5 80q-14 63 58 38q17 -6 32 -12.5t21.5 -10t15.5 -6t19.5 -2.5t27.5 3q40 6 42 22t-34 39q-34 22 -64 67t-30 75z" />
    <glyph glyph-name="t" unicode="t" horiz-adv-x="403" 
d="M176 562q15 9 26 4t30 -29q19 -25 22 -41t-7 -35q-7 -13 -13.5 -32.5t-6.5 -24.5q1 -5 24 -7q26 -2 42 -13.5t31 -38.5q23 -44 -3 -49.5t-92 5.5q-46 7 -56 -19.5t-12 -86.5l-2 -53q1 -14 25 -28t40 -8q65 1 84 8q22 8 49 0.5t27 -36.5q0 -30 -12 -39q-19 -15 -63.5 -27
t-78.5 -12q-45 0 -76.5 13t-60.5 42q-55 57 -32 192l10 58l-21 43q-54 54 -43 82q8 16 26 19.5t25 -8.5q6 -11 33 -9.5t27 11.5q0 13 24.5 63t33.5 56z" />
    <glyph glyph-name="u" unicode="u" horiz-adv-x="419" 
d="M36 332q3 7 12 36t16 44.5t14 15.5q12 0 40 -36.5t28 -51.5q0 -17 -18 -77q-15 -49 -17.5 -92.5t9.5 -50.5q13 -8 64.5 22.5t61.5 52.5l20 42q6 12 27 95.5t27 90.5q9 9 37.5 -4.5t40.5 -32.5q16 -23 7.5 -92.5t-32.5 -122.5q-15 -32 -28 -65q-10 -24 -38 -47t-61.5 -37
t-68.5 -20t-58 5q-30 12 -57 35.5t-40 47.5q-17 32 -12.5 108t26.5 134z" />
    <glyph glyph-name="v" unicode="v" horiz-adv-x="517" 
d="M428 443q27 -7 49 -30.5t22 -45.5q0 -24 -19.5 -42t-55.5 -43t-59 -52l-95 -107q-69 -76 -78 -94q-11 -21 -31 -26.5t-38 6.5q-16 12 -36 48t-20 55.5t-19.5 101.5t-31.5 113q-5 15 -9.5 41.5t-4.5 45t4 20.5q11 0 42.5 -17t43.5 -30q19 -22 28.5 -43.5t20.5 -67.5
q5 -22 11.5 -37.5t11.5 -15.5q8 0 47.5 41t93.5 105q40 49 67 65.5t56 8.5z" />
    <glyph glyph-name="w" unicode="w" horiz-adv-x="650" 
d="M521 416q11 20 38 17t53 -26q17 -17 22.5 -29.5t5.5 -36t-5.5 -36t-21.5 -26.5q-15 -13 -20 -19.5t-6.5 -11t-13 -23.5t-34.5 -49q-16 -20 -32.5 -43.5t-24.5 -34.5t-17.5 -22t-16.5 -16t-16 -7q-22 -6 -46 15t-41.5 49.5t-34.5 54.5t-25 29q-4 1 -19.5 -20.5
t-32.5 -52.5q-35 -64 -59 -79.5t-55 4.5q-20 13 -31 43.5t-32 130.5q-23 110 -37 139q-13 28 -8 43t27 15q30 0 58 -25t40 -60q13 -44 22 -44q6 0 21 25t31.5 53.5t23.5 33.5q22 19 66 -11t51 -68q5 -27 14 -37t9 -23q0 -17 12 -27q8 -6 22 7t47 56q57 73 57 83t9 29z" />
    <glyph glyph-name="x" unicode="x" horiz-adv-x="437" 
d="M280 433q4 1 35 23.5t45 22.5q20 0 45.5 -30t20.5 -47q-5 -19 -5 -30q0 -5 -15 -18t-37 -26q-66 -42 -87 -76.5t6 -57.5q16 -13 33.5 -56t14.5 -63q-1 -14 -7.5 -19t-25.5 -7q-28 -2 -43 9.5t-32 50.5q-8 18 -16.5 28.5t-13.5 9.5q-11 -4 -50 -68q-23 -37 -37 -51.5
t-30 -17.5q-18 -3 -26.5 1.5t-24.5 24.5q-24 32 -19 58q4 17 38 77t71 116q7 14 1 43t-18 58t-10.5 53t23.5 27q21 4 58 -39l38 -42l29 23q30 23 39 23z" />
    <glyph glyph-name="y" unicode="y" horiz-adv-x="507" 
d="M398 453q30 19 72 -11q22 -16 26 -36t-9 -53l-18 -46q-16 -41 -59.5 -119.5t-63.5 -103.5q-8 -9 -18.5 -34.5t-19.5 -46t-14 -20.5q-7 0 -14 -20q-7 -23 -46.5 -68t-68.5 -64q-37 -24 -76.5 -23t-59.5 25q-24 31 -17.5 51.5t49.5 44.5q77 43 118 126q11 22 10.5 34.5
t-13.5 52.5q-21 61 -38 135.5t-19 109.5l-3 41l41 -1q37 -2 55 -18.5t24 -56.5q6 -38 17.5 -72.5t19.5 -36.5q6 -2 19 17.5t28 49.5t30 60.5t28 54.5t20 28z" />
    <glyph glyph-name="z" unicode="z" horiz-adv-x="530" 
d="M108 434q24 21 122 25t152 -13q60 -17 85.5 -59.5t-8.5 -66.5q-13 -9 -27 -10t-24 2t-21.5 -0.5t-20.5 -17.5q-11 -17 -30 -38.5t-30.5 -35.5t-11.5 -18q0 -3 -12 -19t-23 -31t-9 -16q3 -3 86 3q77 6 109.5 -2t55.5 -39q17 -23 18.5 -30.5t-8.5 -23.5t-24.5 -19t-74.5 -2
q-70 1 -167.5 -10t-121.5 -22.5t-47.5 -1t-42.5 39.5l-23 36l23 35q13 19 61 76t87.5 105t39.5 55q0 1 -3 1t-8 -1t-11 -2q-21 -4 -49.5 15.5t-42.5 46.5q-9 18 -9 24t10 14z" />
    <glyph glyph-name="braceleft" unicode="{" horiz-adv-x="406" 
d="M278 681q31 10 45.5 5.5t40.5 -29.5q35 -34 32 -53t-44.5 -29t-67.5 -21q-20 -8 -22.5 -17.5t1.5 -55.5q5 -62 13 -99q28 -128 -88 -128q-37 0 -50.5 -13.5t4.5 -34.5q21 -23 28 -62.5t1.5 -75.5t-13.5 -63.5t-14 -36.5q-13 -20 -13 -34q0 -15 14.5 -27.5t106.5 -10.5
q17 4 31 -8q16 -11 31 -41.5t10 -38.5q-6 -9 -65 -9q-40 0 -94 5.5t-78 27.5q-14 13 -30.5 35.5t-25.5 41.5l-21 45l28 74q29 74 29 92.5t-23 68.5q-21 45 -22 73.5t17 66.5l18 39l58 3q41 2 49 5.5t7 19.5l-9 101q-5 65 5.5 105t34.5 47q11 3 34 15t42 17z" />
    <glyph glyph-name="bar" unicode="|" horiz-adv-x="159" 
d="M37 613q12 15 35.5 9t46.5 -29l30 -31l-7 -103q-16 -231 -1 -490q4 -86 2.5 -110.5t-11.5 -34.5q-14 -14 -28.5 -14t-39.5 12q-31 16 -40 40q-15 39 -14 219q1 40 2 111q3 227 8.5 317.5t16.5 103.5z" />
    <glyph glyph-name="braceright" unicode="}" horiz-adv-x="460" 
d="M84 632q12 15 44.5 12t205.5 -14q41 -23 60 -48t25 -64q4 -28 -1 -47t-30 -67l-38 -72l50 -32q38 -24 44 -33.5t6 -42.5q0 -42 -24.5 -79t-63.5 -55q-52 -23 -66.5 -33t-12.5 -24q1 -17 -7 -66q-12 -68 -68.5 -118.5t-111.5 -42.5q-29 4 -57.5 26.5t-28.5 39.5
q0 20 17.5 38.5t41.5 22.5q31 6 65 34q23 20 28 31t4 40q-4 73 11.5 100t75.5 56l42 21l-25 27q-18 19 -21.5 33t-2.5 59q2 38 8 63t22 57q37 75 -118 78q-5 3 -14 3q-29 0 -53 39t-7 58z" />
    <glyph glyph-name="asciitilde" unicode="~" horiz-adv-x="576" 
d="M181 231q-6 0 -44.5 -23t-52.5 -23q-20 0 -47 25.5t-27 43.5q0 24 48 59.5t91 36.5q18 0 72 -32t72 -53q12 -15 33.5 -15t66.5 19.5t73 40.5q25 19 39.5 21t33.5 -12q16 -11 23.5 -45t-2.5 -52q-19 -36 -146 -77q-38 -13 -54 -17t-37 1.5t-35 17t-48 41.5q-48 43 -59 43z
" />
    <glyph glyph-name="cent" unicode="&#xa2;" horiz-adv-x="518" 
d="M213 516q35 96 48 111q14 16 46 4q2 -1 6 -2q25 -10 34 -33t-2 -52q0 -1 -1 -3q-8 -23 -11.5 -32.5t-6 -22t-2 -15.5t5.5 -9.5t10 -8.5t18 -8l1 -1q33 -15 75 -56.5t38 -54.5q-7 -21 -27.5 -21t-64.5 23q-59 30 -74 25q-11 -4 -29.5 -55.5t-37.5 -129.5q-5 -22 -7 -33
t0.5 -22t7.5 -14t22.5 -5.5t35.5 -2t55 1.5q76 3 93.5 0.5t33.5 -18.5t17.5 -22.5t-7.5 -20.5q-14 -21 -75 -32.5t-134 -5.5l-78 5l-15 -33q-30 -62 -84 -7q-24 26 -24 63t-23 58t-23 36q0 9 -2 13.5t-5.5 8.5t-9.5 21.5t-12 46.5q-16 77 16.5 133t115.5 97q41 19 53 31
t23 42zM152 230q5 22 13 50q7 25 -10 62q-1 1 -2 1q-12 0 -32.5 -55t-16.5 -71q11 -43 44 -4q2 8 4 17z" />
    <glyph glyph-name="sterling" unicode="&#xa3;" horiz-adv-x="647" 
d="M252 577l55 41l67 -3q46 -2 60.5 -6.5t29.5 -22.5q22 -25 22 -43q0 -14 -13.5 -20t-64.5 -12q-29 -4 -46 -13.5t-45 -38t-34.5 -39t1.5 -19.5q11 -14 25 -14t71 -10q98 -16 111 -79q4 -19 1 -26.5t-17 -13.5q-24 -11 -96 4.5t-93 35.5q-33 31 -31 -5q2 -19 14 -57
q11 -33 19.5 -48.5t14 -17.5t15 -4t18.5 -9q10 -8 61 -22q39 -10 63 -7t79 26q21 9 30 8t28 -14q48 -34 38 -85q-2 -14 -13 -23t-41 -20q-99 -40 -227 18q-52 23 -68.5 20t-24.5 -38q-9 -41 -48.5 -55t-103.5 -1q-85 19 -96 80q-7 34 3 60.5t44 62.5q28 30 39.5 36.5
t32.5 3.5q31 -5 35 6q5 14 -23 113q-10 34 2 86q13 57 36 93t70 72zM155 118q17 0 31.5 -13.5t14.5 -32.5q0 -20 -14.5 -34t-31.5 -14q-18 0 -32 14t-14 34q0 19 14 32.5t32 13.5z" />
    <glyph glyph-name="section" unicode="&#xa7;" horiz-adv-x="551" 
d="M255 624q26 24 90.5 30.5t123.5 -8.5t68 -46q10 -40 -9 -56t-62 -3q-30 9 -78.5 -2t-62.5 -30q-11 -20 -11.5 -30.5t10 -20.5t23 -16t25 -18t17.5 -27q8 -27 35 -56q19 -19 24.5 -36t8.5 -67l5 -74l-34 -32q-14 -13 -29 -22.5t-21 -9.5q-41 0 -7 -36q23 -24 36 -56
q24 -57 -32 -128l-21 -27q-36 -50 -134 -50t-137 49l-37 37q-29 29 -35.5 56.5t12.5 44.5q10 8 41.5 -5.5t69 -31.5t55.5 -18q19 0 59 18t48 30q3 4 -13.5 26t-43.5 49q-76 77 -102 127t-26 117q0 34 15.5 57.5t58.5 55.5q23 17 27.5 27t0.5 38q-4 40 8 82t34 62zM341 291
q-18 26 -43 28.5t-48 -18.5q-19 -17 -19 -30t17 -29q19 -17 47.5 -16.5t46.5 18.5l19 19z" />
    <glyph glyph-name="guillemotleft" unicode="&#xab;" horiz-adv-x="486" 
d="M375 408q17 23 32 24t42 -18q30 -21 26.5 -54t-42.5 -92l-42 -64l18 -26q11 -14 24.5 -43t25 -62t8 -58.5t-26.5 -29.5q-33 -5 -60.5 27.5t-36.5 87.5q-4 24 -17 42.5t-23.5 30.5t-10.5 22q0 17 -9 23q-21 12 -0.5 54.5t92.5 135.5zM196 415q16 18 37.5 17t43.5 -22
q23 -21 23 -37t-24 -34q-29 -24 -80 -77.5t-51 -60.5q0 -6 14 -20.5t35 -39.5t33 -50q25 -51 17.5 -79.5t-45.5 -28.5q-20 0 -39 24t-28 61q-5 25 -43 51q-49 34 -61 47.5t-16 41.5q-4 26 2.5 39.5t40.5 50.5q30 34 59 56t50 35.5t32 25.5z" />
    <glyph glyph-name="guillemotright" unicode="&#xbb;" horiz-adv-x="461" 
d="M254 411q6 8 14 9t17.5 -2t13.5 -3q10 0 47 -42t69 -90q28 -40 33.5 -54.5t-1 -28.5t-19.5 -25t-28 -21t-41.5 -44t-55.5 -89q-18 -35 -27.5 -43.5t-32.5 -10.5q-30 -3 -46.5 15t-16.5 53q0 40 32.5 98t75.5 92q37 30 3 79q-26 38 -36 67t-1 40zM65 415q12 19 48.5 0.5
t71.5 -62.5q57 -69 65 -96t-21 -54q-11 -10 -18 -19.5t-11.5 -16.5t-20 -36t-30.5 -56q-27 -49 -37 -59t-33 -10q-22 0 -30.5 7t-23.5 37q-2 3 -5 10q-6 12 -7.5 18t-2.5 13t7 22t15.5 28.5t27.5 48.5q12 19 18 30q30 50 35 65t-4 24q-14 15 -31.5 56.5t-12.5 49.5z" />
    <glyph glyph-name="questiondown" unicode="&#xbf;" horiz-adv-x="371" 
d="M206 259q58 21 91.5 5.5t33.5 -62.5q0 -36 -16 -41q-76 -24 -114.5 -61t-57.5 -104q-16 -55 -11.5 -77.5t31.5 -24.5q59 -6 82 49q7 19 15 25t23 6q25 -1 52 -22q25 -21 25.5 -48t-23.5 -65l-24 -39q-27 -49 -115 -49t-133 49l-25 39q-59 93 -4 241q32 83 64.5 117
t105.5 62zM221 419q12 16 31.5 14t37.5 -11.5t30 -28.5t10 -39q-2 -17 -8.5 -22t-26.5 -7q-50 -5 -74 54q-7 16 -6.5 24t6.5 16z" />
    <glyph glyph-name="Agrave" unicode="&#xc0;" horiz-adv-x="587" 
d="M252 406q3 7 9.5 18.5t18.5 32t25.5 32t22.5 7.5q15 -7 36 -11q19 -4 38 -27t19 -43q0 -7 0.5 -10t2 -6.5t5.5 -12t9 -21.5t15 -40t22 -62q15 -43 29.5 -81.5t25 -61.5t19.5 -43t14 -31t7.5 -20t1.5 -15t-6 -12q-18 -21 -54 -6.5t-55 50.5l-16 32h-109q-109 1 -136 5
q-17 2 -25.5 -3.5t-22.5 -30.5q-13 -24 -23.5 -32t-35.5 -12q-60 -10 -82 47q-7 19 24 67.5t74.5 98.5t88.5 106.5t58 84.5zM369 274q-5 25 -11 25t-46 -46q-33 -38 -28 -47t54 0h2q30 5 34 13.5t-5 51.5v3zM343 778q0 13 4.5 17.5t18.5 4.5q26 0 54 -18t71 -62
q44 -45 54 -67t-3 -41q-15 -20 -47.5 -11.5t-52.5 37.5t-27 32q-14 6 -43 50t-29 58z" />
    <glyph glyph-name="Aacute" unicode="&#xc1;" horiz-adv-x="732" 
d="M357 513q45 23 79 -3.5t47 -94.5q36 -191 54 -216q12 -17 12 -33q0 -15 38.5 -53t54.5 -38q13 0 35 -10t30 -12q13 -4 15 -22.5t-9 -38.5q-5 -10 -16.5 -14t-38.5 -4q-72 0 -123 52q-11 10 -15.5 14t-16 4.5t-22 -1t-42.5 -5t-67 -6.5q-55 -4 -72.5 -1.5t-35.5 16.5
l-27 20l-68 -33q-67 -32 -86.5 -32t-49.5 26l-5 5q-11 9 -14.5 14t-2 14t16 20.5t43.5 28.5q42 24 76 50q27 21 86 111.5t59 111.5q0 14 12.5 31.5t19.5 48.5q10 39 33 50zM424 165q-8 13 -16.5 44.5t-14.5 35.5q-7 4 -34 -33.5t-35 -61.5q-5 -17 2 -18q7 -2 45 3
q56 7 58 15q2 4 -5 15zM425 745q9 10 13.5 20.5t5 16t5 10.5t15 6.5t32.5 1.5q37 0 58.5 -12.5t21.5 -34.5q0 -27 -41 -97t-44 -78q-2 -7 -11 -15t-18 -12q-17 -7 -25.5 -4t-29.5 24q-33 31 -36.5 54.5t18.5 62.5q24 43 36 57z" />
    <glyph glyph-name="Acircumflex" unicode="&#xc2;" horiz-adv-x="662" 
d="M295 448q15 30 30 31.5t57 -24.5q24 -15 33 -38t17 -89q16 -139 39.5 -218.5t66.5 -137.5q22 -29 22 -47q0 -22 -15.5 -34t-37.5 -7q-20 4 -47.5 27t-28.5 35q0 18 -30.5 44.5t-60.5 34.5q-41 11 -80 24l-38 12l-67 -41q-66 -41 -82 -41q-15 0 -39 31t-24 51
q0 13 12 21.5t47.5 30t71.5 53.5q36 31 54.5 58t38.5 73t33 69q9 17 9 31t19 51zM340 153q0 14 -6 18t-14.5 -4.5t-6 -20t13.5 -11.5q5 0 9 5.5t4 12.5zM348 766l34 35l155 -6l57 -86q58 -86 58 -101.5t-19 -38.5q-13 -11 -20.5 -10.5t-33.5 13.5q-37 19 -64 77
q-12 20 -24 35t-16 15q-12 0 -42 -37q-29 -34 -53.5 -36t-52.5 27q-25 26 -20.5 51t41.5 62z" />
    <glyph glyph-name="Adieresis" unicode="&#xc4;" horiz-adv-x="617" 
d="M245 404q0 4 9 22t26.5 37.5t34.5 19.5q28 0 52 -16t28 -37q15 -74 30 -268q6 -85 28 -125q26 -50 20 -82t-42 -32q-17 0 -42 23t-34 47q-6 15 -35 21t-65.5 14.5t-54.5 28.5l-22 26l-35 -43q-26 -31 -35 -35t-32 4q-39 14 -53 34t-6 40t21.5 38t27.5 32.5t14 18.5t15 22
t37.5 49.5t37.5 63.5q11 24 25.5 43t25 27t17.5 15t7 12zM308 180q2 32 -10 49q-9 12 -14.5 8.5t-23.5 -30.5q-23 -35 -19.5 -50t34.5 -12q20 2 25.5 8t7.5 27zM500 758q19 29 43 23t49 -47q29 -47 -3 -76q-14 -12 -20.5 -12.5t-23.5 8.5q-10 6 -22.5 19.5t-20.5 27.5
q-13 23 -13 31.5t11 25.5zM345 782q17 0 29 -8t30 -31q23 -30 27 -51.5t-10 -41.5q-8 -10 -15 -11t-24 7q-78 32 -78 90q0 34 6 40t35 6z" />
    <glyph glyph-name="Ccedilla" unicode="&#xc7;" horiz-adv-x="622" 
d="M514 93q0 -4 -8.5 -13.5t-24.5 -21.5t-35.5 -23t-46.5 -18.5t-53 -7.5q-25 0 -40 -24q-11 -17 -11 -22t12 -14t40.5 -59.5t28.5 -62.5q0 -8 -53 -24q-35 0 -45.5 13.5t-34 41t-44.5 76.5t-18.5 61.5t-4 27t-29.5 28.5q-45 29 -66 49t-35 46q-33 65 -43 127t1.5 111.5
t35.5 94.5t57 78t68 60.5t67.5 44.5t55.5 26t32 9q13 0 18 3t7.5 6.5t18 5t48.5 -1.5q61 -6 95 -8q32 -3 60.5 -23.5t33.5 -45.5q5 -23 -13.5 -84.5t-18.5 -70.5q0 -14 -20 -35l-19 -21l-34 18q-29 14 -38.5 40t2.5 58t1.5 41t-52.5 5q-37 -4 -69.5 -21t-113.5 -74
q-34 -25 -60 -65.5t-37.5 -84t-8.5 -86.5t22 -72q20 -29 52 -41t91 -12q86 0 151 70l30 32l36 -25q33 -22 41.5 -46.5t-11.5 -41.5q-18 -15 -18 -24z" />
    <glyph glyph-name="Egrave" unicode="&#xc8;" horiz-adv-x="528" 
d="M301 251q-46 0 -77.5 4t-43 9.5t-20 9.5t-14.5 4q-4 0 -4 -83v-84l109 8q124 9 164 6.5t65 -21.5q29 -22 29 -45q0 -35 -19 -42.5t-105 -11.5q-64 -3 -107 -6q-67 -5 -94 -3.5t-49 10.5q-34 14 -47.5 10t-23.5 0t-25 30q-22 35 -29 56q-6 18 3 141.5t20 186.5
q31 174 48 195q9 12 23.5 6t178.5 -14q122 -6 163.5 -15t61.5 -34q10 -12 6.5 -35t-18.5 -37q-6 -7 -22 -8t-40.5 2.5t-51.5 7.5t-64 6.5t-70 0.5l-64 -3l-11 -57q-7 -43 -5.5 -51.5t17.5 -14.5q22 -9 92 -9q41 0 62 -4t38 -15q28 -17 35.5 -40t-8.5 -42q-11 -12 -29 -15
t-74 -3zM248 787q-3 9 11 11q10 2 36 2q37 0 49 -5t35 -29q31 -35 31 -63q0 -48 -34 -64q-36 2 -81 80q-42 55 -47 68z" />
    <glyph glyph-name="Eacute" unicode="&#xc9;" horiz-adv-x="520" 
d="M67 588q7 8 27 8t82 -6q61 -6 103 -9q115 -10 157 -21t60 -37q12 -17 13.5 -26.5t-4.5 -23.5l-3.5 -7t-4.5 -5.5t-5.5 -4t-8.5 -2.5t-11 -1.5t-15 0t-19.5 1t-25 2.5l-31 4t-37.5 5q-101 14 -145 14h-44v-36q0 -65 69 -65q52 0 106.5 -27.5t54.5 -54.5q0 -28 -24 -33
t-100 8q-95 15 -107 18q-4 0 -6.5 -3.5t-4 -13t-2.5 -24.5t-2 -39q-3 -81 4.5 -88.5t122.5 -0.5l114 8l38 -26q32 -22 41 -38t0 -34q-4 -7 -12.5 -10.5t-24.5 -5t-32 -2t-44 -2t-53 -3.5q-33 -3 -65 -3.5t-45.5 -0.5t-26.5 -2t-18.5 -7t-11.5 -17q-16 -33 -44.5 -25.5
t-58.5 53.5q-11 16 -12.5 39.5t2.5 96.5q9 180 24.5 304.5t29.5 142.5zM286 767q15 24 24.5 28t41.5 3q31 -2 39.5 -6.5t13.5 -22.5q6 -24 -13.5 -72.5t-37.5 -55.5q-25 -9 -56.5 15t-31.5 53q0 26 20 58z" />
    <glyph glyph-name="Ecircumflex" unicode="&#xca;" horiz-adv-x="544" 
d="M59 604q11 11 39 4.5t54 -25.5q32 -24 73.5 -28t129.5 7q58 7 81 2t45 -29q45 -50 16 -82q-11 -12 -37.5 -14.5t-128.5 -2.5q-123 0 -141 -7q-17 -6 -19 -32q0 -2 -2 -21l-2 -37l66 3q55 2 85.5 -8.5t48.5 -39.5q14 -20 8 -43.5t-26 -29.5q-14 -5 -87 -6.5t-95 2.5
q-11 2 -14 -5.5t-4 -37.5v-46l115 -2q79 -2 116 -9.5t52 -25.5t15 -56q0 -11 -5 -17t-24.5 -10t-50 -5t-89.5 -2q-113 -1 -126 -8q-7 -3 -14 -16q-11 -22 -35 -35q-17 -9 -24.5 -7.5t-23.5 16.5t-23.5 25.5t-13.5 24t-6.5 39.5t0.5 54.5t4 86.5q9 144 23 248t14 131
q0 38 6 44zM214 754l62 46h150l38 -45q31 -37 53 -82.5t16 -81.5q-12 -20 -38 -20.5t-46 10.5t-20 19q0 7 -30 75l-28 42l-60 -50q-47 -41 -66.5 -59.5t-41.5 0.5q-13 11 -31.5 49t-18.5 46q0 4 61 51z" />
    <glyph glyph-name="Edieresis" unicode="&#xcb;" horiz-adv-x="536" 
d="M363 733q12 14 40.5 7t47.5 -28q17 -19 19.5 -33.5t-11.5 -69.5q-7 -12 0.5 -20t21 -12t26.5 -16.5t14 -31.5q4 -34 -14.5 -41.5t-79.5 0.5q-63 9 -148 10t-90 -7.5t-19 -62.5q-10 -38 -9.5 -47.5t11.5 -18.5q16 -12 71 -10q77 3 115 -17.5t27 -59.5q-9 -28 -18 -34
q-14 -9 -157 4l-61 6l-7 -61q-6 -61 4 -70q8 -9 130 -5.5t142 -5.5q28 -15 39 -29t11 -33q0 -17 -7 -26t-28 -14.5t-58.5 -5.5t-98.5 1l-141 5l-12 -29q-13 -31 -25.5 -34t-43.5 17q-31 21 -38 32q-15 26 -6 134q4 44 23 224q11 96 19.5 143.5t23.5 88.5q6 16 12.5 20
t20.5 1q20 -4 90 -7t133 -3t63 4q0 7 -14 59q-17 16 -22.5 39.5t4.5 36.5zM185 757q13 9 37 4.5t48 -20t26 -30.5q3 -23 -8.5 -40.5t-30.5 -17.5q-14 0 -31.5 13t-29 30t-16.5 34.5t5 26.5z" />
    <glyph glyph-name="Icircumflex" unicode="&#xce;" horiz-adv-x="439" 
d="M81 748l35 51l191 1l58 -61q57 -62 63 -84q5 -20 -9 -37.5t-40 -23.5q-16 -5 -30.5 5t-55.5 56l-62 67l-26 -32q-9 -11 -15.5 -20.5t-12 -17t-8 -14t-5 -10.5t-1.5 -9t0.5 -7t3 -6.5t4 -5.5t6.5 -6t7 -6q24 -22 26.5 -43.5t-12.5 -88.5q-44 -206 -58 -346
q-8 -81 -21 -113t-40 -32q-21 0 -45 29q-13 15 -19 33t-5 47t4 52t11 73.5t13 86.5q8 66 24 128t22 97l15 75q3 20 -13.5 29.5t-28.5 45.5q-8 26 -5 38t29 49z" />
    <glyph glyph-name="Idieresis" unicode="&#xcf;" horiz-adv-x="355" 
d="M106 583q6 19 31 14.5t50 -29.5q16 -15 22 -27t5.5 -35.5t-4 -47t-11 -79.5t-13.5 -116q-5 -60 -27.5 -171t-22.5 -121q0 -38 -26 -48.5t-57 14.5q-17 13 -32.5 55.5t-8.5 54.5q6 9 14 48l23 104q15 64 15 91q0 16 9.5 65t18.5 119q10 92 14 109zM92 764q28 19 40 -1
q5 -7 17 -12t24 -15.5t19 -31.5q7 -22 6 -31t-11 -20q-16 -18 -28.5 -16t-38 28t-34.5 58t6 41zM238 768q10 13 16.5 12t36.5 -20q47 -30 53.5 -62t-31.5 -46q-16 -6 -34.5 6t-31 32t-17 42t7.5 36z" />
    <glyph glyph-name="Ntilde" unicode="&#xd1;" horiz-adv-x="673" 
d="M219 788q17 12 123 35l109 -23l32 -37q31 -36 39.5 -36t36.5 33q25 30 44.5 28t41.5 -38q18 -29 18 -50.5t-20 -50.5q-14 -23 -41.5 -37t-56.5 -14q-11 0 -12.5 -20t-3.5 -62.5t-11 -77.5q-11 -46 -18 -232q-4 -121 -8.5 -156.5t-15.5 -47.5q-21 -23 -46.5 -19.5
t-41.5 32.5q-19 31 -49 54q-20 16 -53.5 75.5t-62.5 130.5l-17 41q-4 10 -9.5 31t-10.5 30.5t-11 7.5q-12 -4 -23 -73.5t-16 -172.5q-6 -114 -19 -134q-17 -27 -49 -19.5t-50 42.5q-8 16 -8 66t4.5 102t12.5 116.5t12 90t7 42.5q4 41 13 57t9 58q0 53 12 70q9 12 16.5 11.5
t36.5 -14.5q41 -20 51 -20q12 0 35.5 -30t28.5 -50q9 -45 61.5 -166t61.5 -121q8 0 8 54q0 78 20 192t37 134q8 9 8 24q0 14 -28 48.5t-39 34.5q-8 0 -27.5 -12.5t-39 -24t-40 -17t-37 10.5t-24.5 55q-4 22 -2 31.5t12 17.5z" />
    <glyph glyph-name="Oacute" unicode="&#xd3;" horiz-adv-x="558" 
d="M334 769q17 22 29 26.5t50 4.5q29 0 44 -4t17.5 -12t0.5 -15.5t-7 -21t-6 -21.5q-2 -18 -29 -50t-41 -32q-16 0 -33 -6t28 -12q13 0 33 -22t20 -36q0 -7 13 -27.5t31 -41.5q29 -34 39 -54.5t18 -60.5q18 -98 -9 -190q-8 -27 -62.5 -91t-70.5 -64q-11 0 -34 -18
q-27 -18 -77.5 -31t-99.5 -14q-35 2 -52 8t-36 21q-43 37 -67.5 107.5t-22.5 149.5t30 137q26 52 34 52t8 13q0 10 41 49t52 39q4 0 34 18t68.5 36.5t64.5 18.5q23 0 11 23q-5 11 -19 23q-43 41 0 98zM417 415q-16 13 -60 40t-78 15q-41 -13 -69 -31q-18 0 -29 -36t-32 -82
q-27 -58 -21.5 -130t38.5 -89q31 -17 103 17t116 86q41 49 51.5 117t-19.5 93z" />
    <glyph glyph-name="Ocircumflex" unicode="&#xd4;" horiz-adv-x="617" 
d="M260 781q20 12 45 15.5t91 30.5l109 -27l36 -48q36 -48 51 -61q17 -14 14.5 -40t-21.5 -39q-20 -13 -42.5 -5.5t-39.5 32.5q-16 24 -51 61q-17 17 -24.5 23.5t-19.5 5.5t-22 -9t-34 -29l-30 -26l27 -22q36 -28 83 -59.5t68 -51t35 -49.5q21 -45 21.5 -120.5t-19 -145
t-51.5 -99.5q-59 -56 -102 -76.5t-114 -26.5q-109 -9 -167 32t-87 147q-9 33 -4.5 106t16.5 101q9 18 24 61t58 85t99 69q57 27 58 41q0 7 -18 12q-18 4 -24 36q-5 30 2 45t33 31zM367 498q-14 8 -19.5 7t-27.5 10q-26 -17 -54.5 -9.5t-48.5 -33.5q-16 -13 -47 -62t-31 -63
q0 -11 -11 -22q-11 -12 -7.5 -70.5t17.5 -82.5q14 -25 43.5 -32t91.5 -1q30 3 54 12.5t38 19.5t27 28t18 28t13 30l10 25q10 21 18.5 58t8.5 55q0 16 -32.5 52t-60.5 51z" />
    <glyph glyph-name="Odieresis" unicode="&#xd6;" horiz-adv-x="610" 
d="M69 418q25 41 59.5 77t65 58.5t57.5 38.5t42.5 22.5t16.5 6.5q5 -3 77 -13q70 -10 101 -26t55 -53q16 -27 21 -47t6 -70q1 -60 -12 -122.5t-32 -89.5q-14 -19 -14 -31.5t-30 -52.5q-24 -32 -71.5 -63t-91.5 -43q-43 -11 -112 -9.5t-95 14.5q-22 11 -44.5 35t-22.5 36
q0 6 -5.5 13.5t-12 16t-13.5 30.5t-11 52q-6 56 8 102.5t58 117.5zM448 474q-10 12 -52 12.5t-68 -11.5q-37 -16 -91 -70t-79 -98q-20 -36 -27 -58t-7 -51q0 -51 14.5 -64.5t68.5 -13.5q38 0 56 5t46 25q44 29 60 51.5t53 107.5q24 55 31.5 102t-5.5 63zM486 751q10 10 37 2
t36.5 -15.5t21.5 -31.5q9 -19 9.5 -27.5t-9.5 -22.5q-13 -22 -45 -22q-20 0 -28.5 5.5t-17.5 23.5q-13 25 -14 51t10 37zM296 764q4 3 33 3q17 0 28.5 -6.5t27.5 -24.5q45 -54 8 -74q-23 -12 -45 -8.5t-36 22.5q-13 16 -18.5 48t2.5 40z" />
    <glyph glyph-name="Ugrave" unicode="&#xd9;" horiz-adv-x="572" 
d="M70 619q0 6 5.5 16.5t15.5 21t28.5 9t39.5 -20.5q17 -14 21.5 -26t3.5 -45q0 -36 -9.5 -67.5t-20.5 -53.5t-19.5 -65t-8.5 -99q0 -61 8.5 -111t20.5 -57q13 -8 69 20t89 59q46 43 73.5 95.5t34.5 97t10 88t3 73.5t10.5 49t35.5 19q20 0 44 -25.5t29 -52.5
q5 -30 -5.5 -122.5t-24.5 -134.5q-16 -50 -44.5 -100.5t-54.5 -75.5q-29 -28 -97.5 -65t-102.5 -43q-35 -6 -76 0q-27 4 -39.5 13.5t-38.5 46.5q-55 79 -67 225q-4 44 5.5 109t22.5 80q7 8 8.5 13t0 9.5t1 19.5t11.5 38q18 47 18 62zM285 822l-5 30l39 -3q38 -2 56 -26.5
t28 -85.5q9 -51 2 -65t-42 -14q-32 0 -46.5 30t-31.5 134z" />
    <glyph glyph-name="Uacute" unicode="&#xda;" horiz-adv-x="578" 
d="M41 626q8 25 60 -10q21 -14 27 -26.5t10 -45.5q5 -50 -5 -118q-8 -59 -9.5 -175t5.5 -124q8 -7 46 5q40 11 102.5 76t88.5 121q30 63 52 133t18 86q-5 21 16 47q15 19 22.5 21t28.5 -6q34 -15 48 -38t11 -61q-2 -22 -4.5 -34.5t-6 -21.5t-12 -33.5t-17.5 -55.5
q-29 -97 -84.5 -183.5t-110.5 -120.5q-14 -9 -34.5 -22.5t-27.5 -17.5t-20.5 -10t-25.5 -8t-31 -3q-52 -2 -89.5 24t-66.5 84q-21 40 -24.5 65t-3.5 123q0 85 11 178.5t26 150.5zM303 761l31 59h48q48 0 58 -17t-6 -72q-10 -33 -14.5 -43.5t-11.5 -21.5t-16 -31
q-28 -60 -84 -16q-30 23 -31 57t26 85z" />
    <glyph glyph-name="Ucircumflex" unicode="&#xdb;" horiz-adv-x="519" 
d="M23 587q8 14 16 16.5t34 -1.5q45 -8 53.5 -22t2.5 -70q-15 -130 -4 -269t36 -139q18 0 52.5 23.5t52.5 49.5q28 37 34 37q13 0 53 116q13 36 15 54.5t-4 49.5q-8 48 -4 66q5 16 29.5 17t57.5 -13l32 -14l6 -79q5 -91 -17 -160t-85 -152q-48 -65 -126 -87.5t-144 8.5
q-25 12 -40 27t-31 45q-18 32 -25.5 60t-13.5 95q-9 86 -2.5 200t22.5 142zM185 743l33 38l83 45q72 0 99 -25.5t36 -40.5q17 -26 36 -68.5t23 -64.5q7 -29 -8.5 -43.5t-44.5 -8.5q-26 6 -39.5 21.5t-35.5 63.5t-31 48q-5 0 -18.5 -15.5t-32.5 -35.5t-35 -28
q-17 -10 -25.5 -8.5t-30.5 18.5q-42 32 -42 59q0 7 33 45z" />
    <glyph glyph-name="Udieresis" unicode="&#xdc;" horiz-adv-x="530" 
d="M21 446q19 84 29 115t18 31t27.5 -12t24.5 -20q9 -13 5.5 -66.5t-16.5 -117.5q-15 -70 -15.5 -150.5t13.5 -94.5q22 -23 89 -2t102 62q24 27 46.5 88.5t33.5 128.5q8 44 13 52t28 10q31 3 49 -13q15 -14 29.5 -39t10.5 -29t-23 -99q-12 -56 -23 -87t-33 -65
q-48 -76 -100.5 -105.5t-146.5 -32.5q-70 -2 -102 11t-53 54q-16 30 -20.5 56t-6.5 100q-2 70 2 111t19 114zM224 721q6 9 39 6q22 -1 31.5 -8.5t23.5 -33.5q16 -28 16.5 -36t-10.5 -21q-24 -26 -54 -14.5t-39 49.5q-1 8 -4 19.5t-4.5 17t-1 11.5t2.5 10zM385 740
q9 17 34 11t38.5 -18.5t24.5 -39.5q8 -20 7.5 -28t-10.5 -19q-14 -15 -39.5 -16.5t-37.5 12.5q-13 16 -19 50t2 48z" />
    <glyph glyph-name="germandbls" unicode="&#xdf;" horiz-adv-x="660" 
d="M324 619q13 17 19 24.5t16 14.5t15.5 8.5t20 0t26 -4.5t36.5 -11q106 -31 150.5 -89.5t42.5 -162.5q-2 -84 -43 -119l-23 -19l20 -33q13 -23 20 -60t4.5 -78.5t-26.5 -79t-67 -55.5q-64 -25 -109.5 -19.5t-86.5 42.5q-25 23 -27 29.5t10 25.5q10 15 21 19.5t43 4.5
q58 0 84.5 21.5t37.5 77.5q4 20 -1.5 27t-35.5 21q-36 17 -57.5 40.5t-21.5 46.5q0 12 11 22t42 26q47 24 61.5 48t11.5 73q-2 29 -7 42.5t-19 23.5q-17 13 -30 15t-22.5 -7.5t-17 -25.5t-15 -42.5t-15 -53.5t-19.5 -63t-26 -67q-6 -16 -23.5 -102.5t-22.5 -104.5
q-2 -4 -8 -26t-11.5 -40.5t-15.5 -45t-22 -47t-27 -39.5t-34 -29.5t-41 -10.5q-30 0 -40 -10q-11 -11 -45 5.5t-43 37.5q-9 20 1.5 34.5t32.5 14.5t55 34t41 65q4 14 22.5 99.5t38.5 167.5t30 109q15 38 25.5 83.5t22.5 75.5t41 66z" />
    <glyph glyph-name="agrave" unicode="&#xe0;" horiz-adv-x="416" 
d="M123 378q19 10 80.5 22.5t84.5 13.5q21 0 52.5 -19.5t50.5 -45.5l7.5 -12t5 -9t2.5 -11.5v-12.5t-3 -19t-5.5 -25.5t-7.5 -36.5t-9 -47q-3 -15 -21.5 -99t-23.5 -123q-7 -52 -29 -75t-48 -9t-45 61q-10 26 -17 32t-27 4q-43 -5 -92.5 39.5t-59.5 97.5q-8 44 -8 61t8 48
q34 126 105 165zM272 272q-6 7 -17.5 5t-16.5 -9q-5 -9 -26 -9q-36 0 -66 -60q-29 -56 -19 -86q5 -15 20 -12l54 9l36 7l21 75q20 75 14 80zM160 621q6 16 11.5 17.5t26.5 -6.5q12 -4 29.5 -19.5t30.5 -32.5l49 -65q34 -44 7 -71q-22 -23 -54.5 0.5t-70.5 90.5
q-23 39 -28.5 56t-0.5 30z" />
    <glyph glyph-name="aacute" unicode="&#xe1;" horiz-adv-x="437" 
d="M251 543q0 18 46.5 68.5t52.5 50.5q5 0 36 -29q33 -32 28.5 -57.5t-56.5 -89.5l-34 -42l38 -38q37 -37 46 -37q15 0 18.5 -49.5t-8.5 -97.5q-27 -110 -38.5 -197t-14.5 -112.5t-16 -33.5q-17 -12 -42.5 5t-44.5 52q-15 27 -24 32.5t-37 5.5q-40 0 -71 14
q-29 12 -63.5 47.5t-45.5 62.5q-13 34 -11 85t17 73q11 16 22 37.5t17.5 34t20.5 28t33 26t52 22t81 20.5q60 12 60 22q0 6 -16 15q-17 8 -31.5 34.5t-14.5 47.5zM308 308q-9 9 -56.5 -6.5t-73.5 -35.5q-61 -48 -68 -107q-5 -50 33 -61q14 -4 33 -2q61 10 77.5 16.5
t20.5 25.5q5 22 16 71t15.5 73t2.5 26z" />
    <glyph glyph-name="acircumflex" unicode="&#xe2;" horiz-adv-x="572" 
d="M128 386q33 20 114.5 32.5t100.5 7.5q17 -5 40 -5t39 -4t29 -22q13 -17 13 -34t-11 -94q-17 -109 -20.5 -139t-6.5 -84q-3 -57 -16 -72.5t-46 -3.5q-13 5 -22.5 14t-13.5 16.5t-8 17t-5 11.5q-2 2 -37 -15q-62 -29 -127.5 -24.5t-98.5 40.5q-34 36 -41 115.5t20 129.5
q14 27 14 37t26 33.5t57 42.5zM353 321q4 13 0 16.5t-20 2.5q-8 0 -27.5 -3.5t-53 -15.5t-62.5 -30t-50.5 -51t-21.5 -74.5t14.5 -49t75.5 3.5q43 8 54.5 6.5t26.5 -15.5q22 -20 25 -17t10.5 50t16 103.5t12.5 73.5zM357 652q37 10 53.5 7t57.5 -29q31 -19 45 -34.5
t25 -40.5q41 -100 12 -138q-11 -16 -18.5 -17t-33 7.5t-32.5 18.5t-18 52q-14 60 -23 62.5t-63 -41.5q-38 -31 -50 -36.5t-32 1.5q-11 5 -23 16t-18 23q-10 21 -9 30t15 31q18 30 50 54.5t62 33.5z" />
    <glyph glyph-name="adieresis" unicode="&#xe4;" horiz-adv-x="466" 
d="M360 410q21 14 25 14q8 -1 23.5 -15.5t27.5 -32.5q9 -14 9.5 -32t-5 -38t-15 -49.5t-20 -61.5t-20 -79.5t-14.5 -97.5q-6 -67 -14 -88q-4 -12 -15 -17t-24.5 -2t-26 10t-22.5 20.5t-13 28.5q-2 11 -13.5 15.5t-49.5 7.5q-50 5 -72 12t-52 30q-40 29 -54.5 102t12.5 111
q9 13 22.5 47.5t43.5 64.5q34 34 84.5 46t109.5 0q34 -7 47.5 -6t25.5 10zM296 272q-5 5 -30 3.5t-54 -7.5q-35 -9 -63.5 -43.5t-26.5 -66.5l3 -32l52 -1q27 0 43.5 -3.5t21 -7.5t8.5 -7.5t9 -3.5q7 0 12.5 22t11.5 57.5t10 50.5q9 34 3 39zM203 552q20 20 34 17t39 -32
q16 -20 21 -32.5t2 -25.5q-13 -52 -51 -38q-38 15 -53 52t8 59zM370 569q26 27 57.5 -0.5t28.5 -70.5q-1 -11 -5 -22q-12 -32 -46 -21q-31 10 -42 45q-4 12 -4 24q0 34 11 45z" />
    <glyph glyph-name="ccedilla" unicode="&#xe7;" horiz-adv-x="424" 
d="M224 415q25 7 69 8q28 1 40.5 -3.5t25.5 -19.5q21 -23 21.5 -45.5t-19.5 -35.5q-13 -9 -49.5 -20.5t-51.5 -12.5q-6 0 -22 -14l-55 -46q-27 -23 -44 -57t-9 -48q8 -12 54.5 -11.5t97.5 12.5l74 18l24 -19q22 -17 30.5 -42t-2.5 -39q-28 -34 -109 -43q-39 -5 -65.5 -23
t-55.5 -58l-18 -26l28 -29q37 -40 33 -50.5t-57 -57.5l-62 47l-20 44q-18 39 -20 79.5t14 70.5q10 20 8.5 27.5t-21.5 24.5q-11 10 -24 30.5t-20 38.5q-12 35 -7.5 66t32.5 87q17 36 77.5 85t102.5 62z" />
    <glyph glyph-name="egrave" unicode="&#xe8;" horiz-adv-x="415" 
d="M188 467q46 11 83.5 -1.5t84.5 -55.5q27 -25 32.5 -37.5t5.5 -45.5q0 -47 -18 -83l-18 -36h-74q-74 0 -110 18q-24 13 -31 13.5t-11 -8.5q-7 -17 -0.5 -54.5t17.5 -48.5q8 -8 20 -9t25 2.5t41 9.5t56 10q26 3 38 -1.5t33 -26.5q28 -27 30 -37t-14 -32q-16 -20 -87 -34.5
t-121 -8.5q-63 8 -105.5 49.5t-58.5 110.5q-12 59 -2.5 95.5t22.5 60.5t12 26t12 29q10 19 60 53.5t78 41.5zM261 336q7 11 -8 13q-19 3 -23 -10q-1 -2 -1 -4q0 -5 6.5 -7t14.5 0.5t11 7.5zM217 679q17 17 60.5 -6.5t80 -67t36.5 -74.5q0 -24 -17 -32t-48 1q-21 7 -37 20.5
t-41 46.5q-28 39 -37 69.5t3 42.5z" />
    <glyph glyph-name="eacute" unicode="&#xe9;" horiz-adv-x="478" 
d="M131 469q29 19 45 22t63 0q121 -9 177 -96q24 -37 23 -61t-27 -47q-20 -18 -87.5 -39t-88.5 -16q-23 6 -45.5 26t-22.5 35q0 19 -8 18q-9 -3 -14 -30q-6 -30 -20 -57q-16 -30 -8.5 -58t36.5 -43q20 -11 32.5 -12t38.5 6q105 29 130.5 33t46.5 -6q25 -12 44 -37
q12 -17 13 -24.5t-9 -22.5q-20 -29 -115 -48.5t-164 -8.5q-75 13 -121.5 67.5t-48.5 133.5q-2 96 27.5 156.5t102.5 108.5zM236 356q14 0 19 10q3 7 -9 8q-2 1 -5 1q-7 0 -12.5 -3t-5.5 -6q0 -10 13 -10zM316 657q11 27 18 32.5t24 0.5q42 -10 50.5 -21.5t4.5 -54.5
q-5 -51 -15 -78q-7 -19 -15 -22t-41 0q-45 5 -59 16q-14 12 -13.5 38t14.5 38q15 12 32 51z" />
    <glyph glyph-name="ecircumflex" unicode="&#xea;" 
d="M124 457q6 0 20.5 11t25.5 11q16 0 20 14q2 9 -8 9q-12 0 -42 23q-35 27 -31 52.5t52 73.5q42 43 61 49.5t55 -8.5q27 -12 92.5 -68t77.5 -78q11 -21 2.5 -46t-27.5 -25q-17 0 -55 24.5t-38 34.5q0 11 -26 35l-25 25l-19 -21q-19 -20 -38 -49l-19 -28l38 -11
q63 -19 122 -57.5t59 -61.5q0 -22 -23 -60.5t-50 -61.5q-36 -31 -83 -47.5t-93 -14.5q-41 2 -50 -7t9 -35q9 -15 20.5 -19t42.5 -4q49 0 92 15q58 20 102.5 -1t33.5 -63q-4 -17 -17 -25.5t-57 -22.5q-72 -24 -116 -21.5t-102 32.5q-57 29 -84.5 57t-38.5 68q-9 35 -4.5 87.5
t19.5 80.5q13 27 14 36q0 9 40 53t48 44zM283 379q-34 40 -102 -34q-42 -45 -36 -56t61 8q46 15 69 39.5t8 42.5z" />
    <glyph glyph-name="edieresis" unicode="&#xeb;" horiz-adv-x="481" 
d="M181 415q40 11 81 26q24 9 32 8.5t29 -9.5q8 -4 14 -6q30 -14 46 -28.5t33 -44.5q40 -71 48 -92t6 -44q-1 -21 -9.5 -33.5t-32.5 -30.5q-29 -22 -45.5 -26.5t-70.5 -4.5t-71 4.5t-47 28.5q-18 14 -30.5 27t-12.5 19q0 15 -6 14q-12 -2 -21 -36q-11 -40 -9 -71t17 -45
q20 -18 79.5 -21.5t96.5 11.5t66 10t60 -31q23 -19 25 -25.5t-8 -27.5q-14 -28 -58.5 -42.5t-93.5 -20t-59 1.5q-11 9 -49 14q-32 4 -80.5 33t-78.5 61q-16 18 -19.5 35.5t-2.5 86.5q1 62 5 87.5t18 50.5q26 51 59.5 78t88.5 43zM337 300q-9 20 -20.5 20.5t-55.5 -14.5
q-71 -27 -71 -39.5t72 -12.5q55 0 71 10t4 36zM355 578q17 17 76 -16q25 -14 29.5 -40.5t-13.5 -49.5q-13 -16 -19.5 -17t-26.5 9q-38 20 -53 56.5t7 57.5zM197 546q0 40 16 43t54 -18q16 -9 29 -19.5t16 -17.5q6 -19 -8 -44t-32 -28q-23 -3 -49 25.5t-26 58.5z" />
    <glyph glyph-name="icircumflex" unicode="&#xee;" horiz-adv-x="369" 
d="M52 361q27 61 84 16q21 -16 23 -38t-13 -86q-9 -38 -9.5 -65t5.5 -77q11 -91 -4.5 -113.5t-66.5 9.5q-22 14 -28 49t-6 143q1 129 15 162zM40 556q52 70 83.5 95.5t57.5 19.5t63 -45q33 -36 70.5 -94t43.5 -84q5 -20 -14 -37q-11 -11 -21 -12.5t-31 3.5q-22 5 -33.5 17.5
t-33.5 54.5q-33 64 -43 67q-4 1 -18.5 -11.5t-30.5 -32.5q-28 -34 -48 -42.5t-48 2.5q-7 3 -14 11t-10 17q-5 14 0 27.5t27 43.5z" />
    <glyph glyph-name="idieresis" unicode="&#xef;" horiz-adv-x="320" 
d="M129 397q13 -8 20 -13t11.5 -15t5 -18t-0.5 -29.5t-4 -41.5t-7.5 -62t-8.5 -83q-10 -110 -14 -122q-1 -4 -12 -7.5t-24 -3.5q-19 0 -30.5 6t-25.5 25q-8 10 -9.5 12.5t-6 10.5t-4 10.5t-0.5 14.5t1 20.5t3.5 29.5t4.5 40t7.5 54t8.5 70q12 97 21 109t23 10t41 -17z
M197 574q9 9 39 -1t49 -28q22 -21 24.5 -43t-16.5 -32q-17 -9 -35 -3t-43 29q-17 16 -23 41.5t5 36.5zM15 565q10 22 22.5 22.5t47.5 -19.5q29 -17 37.5 -38t-6.5 -38q-13 -17 -35 -11.5t-46 30.5q-20 21 -23.5 30t3.5 24z" />
    <glyph glyph-name="oacute" unicode="&#xf3;" horiz-adv-x="461" 
d="M115 388q69 54 86 27q5 -9 87 -9q58 0 74.5 -4t39.5 -24q13 -12 25.5 -30t17.5 -31q10 -33 4 -103t-23 -108q-21 -47 -89.5 -80t-145.5 -33q-36 0 -53 4.5t-40 21.5q-53 39 -75.5 102t-5.5 127q11 43 33 74t65 66zM324 291q-9 11 -42 12.5t-57 -8.5q-21 -9 -62 -48
q-25 -24 -32.5 -37.5t-7.5 -33.5q0 -33 11 -44q19 -19 93.5 -5.5t86.5 38.5q12 22 15.5 68.5t-5.5 57.5zM246 615q17 15 34.5 26.5t23.5 11.5q22 0 40.5 -30t13.5 -55q-6 -27 -35 -58t-49 -31q-19 0 -39 21.5t-26 48.5q-3 18 3 29.5t34 36.5z" />
    <glyph glyph-name="ocircumflex" unicode="&#xf4;" horiz-adv-x="552" 
d="M166 432q15 5 35 11t27.5 8.5t19.5 5t16.5 2t12 -2.5t13 -6.5t13.5 -12.5q10 -10 26.5 -19t29.5 -12q18 -3 31 -14t30 -37q23 -34 26.5 -49t-0.5 -65q-3 -33 -6.5 -51.5t-6.5 -23.5t-7 -14.5t-8 -23.5q-14 -58 -132 -115q-65 -31 -106 -36t-68 14q-58 42 -87.5 142
t-2.5 165q16 37 62 80t82 54zM304 317q-38 36 -84 19t-77 -78q-27 -54 -22 -105.5t37 -57.5q20 -4 76.5 26t64.5 48q30 63 31 92.5t-26 55.5zM330 711q21 14 29 13.5t32 -15.5q22 -14 60.5 -65t47.5 -79q6 -19 25 -36q20 -18 18 -53t-23 -45q-53 -24 -106 79
q-12 25 -24.5 43t-17.5 18q-10 0 -37 -20.5t-43 -41.5q-19 -23 -49.5 -21.5t-48.5 27.5q-19 26 -19 39q0 10 64 74t92 83z" />
    <glyph glyph-name="odieresis" unicode="&#xf6;" horiz-adv-x="495" 
d="M186 415q7 2 15 8.5t17 13.5t33.5 13.5t60.5 7.5q39 2 52.5 -2.5t36.5 -26.5q33 -31 58 -74q18 -30 21 -46.5t-2 -64.5q-5 -66 -36.5 -116t-99.5 -100q-62 -45 -90 -54.5t-84 -3.5q-44 4 -58 11t-40 35q-39 42 -49 67.5t-11 87.5q-1 64 12.5 99.5t54.5 78.5
q23 23 55 42.5t54 23.5zM371 293q0 31 -7 35t-48 -5l-58 -13q-27 -6 -46 -20.5t-49 -52.5q-21 -29 -27.5 -45t-6.5 -47l-1 -47l35 -3q21 -1 38 5t45 24q125 84 125 169zM378 648q16 16 45.5 -0.5t44.5 -49.5l17 -38l-25 -22q-47 -41 -75 -1q-10 15 -13 58.5t6 52.5zM203 652
q4 9 16 8.5t29 -9t29 -22.5q20 -22 21 -46t-15.5 -37t-43.5 -7q-29 8 -39 39.5t3 73.5z" />
    <glyph glyph-name="ugrave" unicode="&#xf9;" horiz-adv-x="398" 
d="M272 409q15 19 36.5 16.5t40.5 -15t30.5 -36.5t7.5 -48l-8 -54q-13 -84 -37.5 -131t-71.5 -77q-30 -19 -49.5 -24t-64.5 -6q-50 0 -63 4.5t-35 28.5q-18 19 -26.5 39t-14.5 57q-17 91 10 197q10 41 19.5 48t40.5 -4q38 -13 48 -30t5 -65q-15 -159 -4 -165q8 -5 45 19
t37 34q0 11 13 36q12 23 23 74t8 69t10 33zM87 650q3 10 10.5 11.5t17 -3.5t19 -11t19.5 -11.5t16 -6.5q15 -2 64 -60.5t49 -74.5q0 -21 -17 -28t-43.5 2.5t-51.5 32.5q-27 25 -57.5 80t-25.5 69z" />
    <glyph glyph-name="uacute" unicode="&#xfa;" horiz-adv-x="380" 
d="M167 180q0 8 23 32.5t23 36.5q0 9 3 14.5t10 20t14 39.5q12 45 21 57t30 12q26 0 52 -33l27 -33l-15 -41q-14 -40 -22 -69q-10 -38 -36 -76.5t-52 -53.5q-43 -26 -101 -18.5t-90 42.5q-37 41 -43 123.5t20 183.5q9 34 23 34q17 0 46 -19.5t33 -33.5q4 -15 -9 -106
q-8 -62 -7.5 -79.5t11.5 -29.5q19 -22 34 -14q5 3 5 11zM194 527q7 18 49.5 76.5t48.5 58.5q9 0 43 -30.5t34 -38.5q0 -13 -37.5 -85.5t-48.5 -82.5q-17 -14 -42.5 1.5t-40.5 46t-6 54.5z" />
    <glyph glyph-name="ucircumflex" unicode="&#xfb;" horiz-adv-x="462" 
d="M51 384q12 19 43.5 21t47.5 -14q25 -25 -3 -128q-10 -35 -10 -83.5t9 -53.5q21 -13 97 81q29 35 37 54t11 52q3 44 12 59t31 15q25 0 39 -8t25 -29q22 -43 9 -98t-63 -134q-40 -61 -81 -88.5t-92 -27.5q-27 0 -41 6.5t-38 30.5q-38 37 -55 74t-19 89q-2 44 10.5 99.5
t30.5 82.5zM186 623q41 30 74 29.5t71 -32.5q39 -32 55 -49t42 -55q20 -30 22.5 -40t-6.5 -26q-20 -39 -54 -30t-60 59q-7 14 -18 28t-19 18q-14 7 -27 0.5t-46 -37.5q-35 -34 -47 -39t-33 6q-48 24 -35.5 70.5t81.5 97.5z" />
    <glyph glyph-name="udieresis" unicode="&#xfc;" horiz-adv-x="432" 
d="M271 84q-6 0 -53 -32t-67 -32q-45 0 -93 62.5t-48 122.5q0 50 15.5 124t28.5 84q14 11 23 11q14 0 38.5 -19t28.5 -33q4 -16 -3.5 -83t-15.5 -86q-5 -14 8 -32q10 -13 17.5 -9t40.5 38q30 33 39 51t17 66q11 68 24 79q15 13 39 4.5t43 -34.5l24 -30l-15 -81
q-6 -38 -12 -59t-10.5 -28t-16 -21.5t-20.5 -29.5q-8 -14 -17.5 -23.5t-14.5 -9.5zM125 544q15 17 27 15.5t37.5 -23.5t32 -49t-11 -38.5t-46.5 4.5t-40 43q-9 21 -9 29t10 19zM309 553q15 18 23 18q10 0 50 -39t40 -49q0 -15 -20.5 -28t-40.5 -11q-16 2 -25 11t-22 36
q-15 32 -15.5 41t10.5 21z" />
    <glyph glyph-name="quotedblleft" unicode="&#x201c;" horiz-adv-x="358" 
d="M259 592q33 47 71 1q17 -23 17.5 -42t-15.5 -43q-14 -18 -13 -49t16 -90q6 -24 -7.5 -41t-35.5 -12q-36 10 -47 29t-16 84t1 97.5t29 65.5zM56 602q25 30 39.5 31.5t41.5 -23.5l29 -26l-28 -52q-50 -93 -14 -149q11 -16 12.5 -31.5t-5.5 -24t-18 -11.5t-27 3t-30 20
q-46 46 -46 126.5t46 136.5z" />
    <glyph glyph-name="quotedblbase" unicode="&#x201e;" horiz-adv-x="397" 
d="M68 97q-13 24 8 32q26 9 59 -22q1 -2 3 -3q17 -18 21 -30.5t1 -41.5q-4 -40 -26 -96t-38 -66q-17 -11 -43 0t-36 33q-8 16 -6.5 26t17.5 33q22 35 35 78t5 57zM307 139q18 0 43 -24t33 -50q8 -41 0 -95.5t-30 -103t-42 -48.5q-15 0 -41 28.5t-26 45.5q0 19 21 47
q13 18 17 38t5 74q1 84 2 86t18 2z" />
    <glyph glyph-name="bullet" unicode="&#x2022;" horiz-adv-x="275" 
d="M70 387q52 15 84 2t71 -67q33 -45 38.5 -69t-10.5 -61q-26 -62 -92 -61q-42 0 -77 23t-52 57.5t-22 70t11 65.5t49 40z" />
    <glyph glyph-name="currency" unicode="&#xa4;" horiz-adv-x="475" 
d="M312 616q31 11 60 0.5t49.5 -39.5t10 -45.5t-56.5 -27.5q-34 -9 -94 -42t-60 -44q-1 -5 87 -9q65 -3 80.5 -7.5t39.5 -28.5q21 -21 26 -32t1 -29q-6 -28 -18 -32q-15 -6 -138.5 6.5t-139.5 21.5q-20 11 -28 11q-11 0 -14 -19t6 -25q21 -13 66.5 -20t90.5 -3t59 1t36 -21
q23 -19 27.5 -37.5t-8.5 -42.5q-7 -11 -3.5 -20t21.5 -27q23 -23 27.5 -44t-10.5 -33q-8 -6 -33.5 -10.5t-117.5 -15.5q-62 -8 -125.5 27t-98.5 95q-121 212 38 368q34 33 95 67.5t125 56.5zM397 122q0 5 -8 8.5t-31 9t-229 18.5q-16 4 -16 -5q0 -7 20 -25t136.5 -33.5
t127.5 27.5z" />
    <glyph glyph-name="currency" unicode="&#x20ac;" horiz-adv-x="475" 
d="M312 616q31 11 60 0.5t49.5 -39.5t10 -45.5t-56.5 -27.5q-34 -9 -94 -42t-60 -44q-1 -5 87 -9q65 -3 80.5 -7.5t39.5 -28.5q21 -21 26 -32t1 -29q-6 -28 -18 -32q-15 -6 -138.5 6.5t-139.5 21.5q-20 11 -28 11q-11 0 -14 -19t6 -25q21 -13 66.5 -20t90.5 -3t59 1t36 -21
q23 -19 27.5 -37.5t-8.5 -42.5q-7 -11 -3.5 -20t21.5 -27q23 -23 27.5 -44t-10.5 -33q-8 -6 -33.5 -10.5t-117.5 -15.5q-62 -8 -125.5 27t-98.5 95q-121 212 38 368q34 33 95 67.5t125 56.5zM397 122q0 5 -8 8.5t-31 9t-229 18.5q-16 4 -16 -5q0 -7 20 -25t136.5 -33.5
t127.5 27.5z" />
  </font>
</defs>
</svg>
